<?xml version="1.0" encoding="utf-8"?>
<!-- Generator: Adobe Illustrator 25.0.0, SVG Export Plug-In . SVG Version: 6.00 Build 0)  -->
<svg version="1.1" id="Layer_1" xmlns="http://www.w3.org/2000/svg" xmlns:xlink="http://www.w3.org/1999/xlink" x="0px" y="0px"
	 viewBox="0 0 1370 910" style="enable-background:new 0 0 1370 910;" xml:space="preserve">
<style type="text/css">
	.st0{fill:#9478B5;}
	.st1{fill:#5C412B;}
	.st2{fill:#F5D8BC;}
	.st3{fill:none;stroke:#000000;stroke-width:2;stroke-miterlimit:10;}
	.st4{fill:#F2EFF6;}
	.st5{fill:#472FCE;}
	.st6{fill:#AC3CBC;}
	.st7{fill:none;stroke:#21202B;stroke-miterlimit:10;}
	.st8{fill:#F4B0EF;}
	.st9{fill:#EACCB2;}
	.st10{fill:#342614;}
	.st11{fill:#E8C5AA;}
	.st12{fill:#3B2A56;}
	.st13{fill:#332615;}
	.st14{fill:none;stroke:#010202;stroke-miterlimit:10;}
	.st15{opacity:0.75;fill:#F4ECE1;enable-background:new    ;}
	.st16{opacity:0.75;fill:#F9B03C;enable-background:new    ;}
	.st17{opacity:0.51;fill:#F9F9F7;enable-background:new    ;}
	.st18{opacity:0.62;fill:#F9F9F7;enable-background:new    ;}
	.st19{fill:#21202B;}
	.st20{enable-background:new    ;}
	.st21{fill:#F2BB09;}
	.st22{fill:none;stroke:#F29313;stroke-width:5;stroke-miterlimit:10;}
</style>
<path class="st0" d="M1371.9,48.3v810.5c0,24-16.1,44-36.9,47.4c-2.1,0.3-4.2,0.5-6.3,0.5H49.2c-23.8,0-43.2-21.6-43.2-48V48.3
	c0-26.4,19.4-48,43.2-48h1279.6C1352.5,0.4,1371.9,22,1371.9,48.3z"/>
<path class="st1" d="M1044.7,227.4c0,0-60.4-65.4-144.5,25.6s-29.1,192.6-29.1,192.6s7.4,11.2-17.8,18.5
	c-9.8,2.8,219.2,83,266.2,36.3c0,0-20.5-16.4,2.7-45.2c17.6-21.8,25.8-72.2,4.4-160.5C1105.4,206.5,1044.7,227.4,1044.7,227.4z"/>
<path class="st2" d="M928.8,367.1c-3.7,14.6-18.4,23.4-33,19.8c-14.6-3.7-28.1-28.1-24.5-42.6c3.7-14.6,23.1-13.8,37.7-10.1
	S932.4,352.5,928.8,367.1z"/>
<path class="st2" d="M1077.1,370c4.2,14.4,19.3,22.7,33.7,18.5c14.4-4.2,27.1-29.1,22.9-43.5c-4.2-14.4-23.6-12.9-38-8.7
	C1081.2,340.5,1072.9,355.6,1077.1,370z"/>
<path class="st2" d="M1104.4,364c-2.6,39.4-36.1,77.4-65.9,103.6c-25.7,22.6-65,19.3-86.6-7.2c-24.2-29.6-49.8-70.7-47.3-109.4
	c4.7-71.8,53.2-127.1,108.3-123.6C1068.1,231.1,1109.1,292.2,1104.4,364z"/>
<path class="st3" d="M1003.5,360.4c0,0-3.2,15.6-11,16.9c-1,0.2-1.9,0.5-2.6,1.2c-1.1,1.1-2.1,3.2,0.2,6c3.8,4.8,7.9,3,7.9,3"/>
<path class="st3" d="M1021,427.3c0,0-3.8-15.7-28.4-13.4c-12.1,1.1-8.5,1.9-21.9,11.9"/>
<path class="st3" d="M956.3,325.3c0,0-10.1,0.6-9.9-6.4"/>
<path class="st3" d="M959.3,321.5c0,0-6.1-0.1-4-6.6"/>
<path class="st3" d="M954.6,331c0,0-9.8,1.8-9.6-5.2"/>
<circle class="st4" cx="968.3" cy="331.1" r="13.9"/>
<circle cx="972.8" cy="336.4" r="7"/>
<path class="st3" d="M1040.6,328.1c0,0,10.1,0.6,9.9-6.4"/>
<path class="st3" d="M1037.5,324.2c0,0,6.1-0.1,4-6.6"/>
<path class="st3" d="M1042.2,333.8c0,0,9.8,1.8,9.6-5.2"/>
<circle class="st4" cx="1029.6" cy="334.6" r="13.9"/>
<ellipse transform="matrix(0.1602 -0.9871 0.9871 0.1602 528.1202 1303.7711)" cx="1030.3" cy="341.5" rx="7" ry="6.9"/>
<g>
	<g>
		<path class="st1" d="M1049.6,303c-9.2,10.9-23.2,18.4-37.2,20.8c-3.2,0.5-1.8,5.4,1.3,4.8c14.7-2.5,29.6-10.5,39.4-22.1
			C1055.2,304.1,1051.7,300.5,1049.6,303L1049.6,303z"/>
	</g>
</g>
<path class="st1" d="M1042.2,233.1l-21.5,40.6c-3.2,6-9,10.2-15.8,11.2c-11.8,1.8-38.4-20.4-49-7.8c-11,13-30.1,12.6-28.7,6
	c3.4-16.3,13-45,13-45s42.4-26.7,60.9-18.5C1019.6,228,1042.2,233.1,1042.2,233.1z"/>
<path class="st1" d="M1042.2,233.1c0,0-17.8,47.5-8.2,51c9.6,3.4,19.8-8.2,27.7,0c7.9,8.2,7.9,8.2,7.9,8.2s13.8,24,29.8,18.8
	s-10.7-61.9-10.7-61.9L1042.2,233.1z"/>
<polygon class="st2" points="1022.9,559 952.2,553.7 969.2,456.3 1021.4,461.3 "/>
<path class="st5" d="M1130.7,906.8H896.2c0-0.2,0-0.3,0-0.5c-4.8-48.7-5.9-91.6-0.2-120.3c5.6-28.3,17.8-42.8,39.4-35.2l148.6-7.7
	c0,0,7.1,6.9,15.8,24.4c4.4,8.8,9.2,20.3,13.7,35c5.8,18.8,11.1,42.8,14.6,73v0c1.1,9.7,2,20,2.7,30.9
	C1130.7,906.5,1130.7,906.7,1130.7,906.8z"/>
<path class="st2" d="M1122.9,872.2c-1.3,6.1-5.6,13.6-5.6,13.6c-0.7,3.7-9.9,15-14.6,20.6c-0.2,0.2-0.3,0.3-0.4,0.5h-8.4
	c0-0.2,0-0.4-0.1-0.5c-0.5-0.9-3.1-0.2-3.1-0.2l-0.1,0.2l-0.3,0.5h-8.6c0.1-0.2,0.2-0.3,0.3-0.5c1.1-2.1,1.8-3.6,1.6-4.2
	c-0.6-2.2-3.6-0.2-3.6-0.2s-1.1,1.7-2.8,4.4c-0.1,0.2-0.2,0.3-0.3,0.5h-8.2c0.1-0.2,0.2-0.3,0.3-0.5c3.1-4.6,5.6-8.2,6.1-9.1
	c0.6-1.1,0.1-1.8-0.8-2.1c-1.8-0.7-3.8,0.2-4.7,1.8c-1.2,2.1-3.2,5.5-5.6,9.3c-0.1,0.2-0.2,0.3-0.3,0.5h-9.8
	c0.1-0.2,0.2-0.3,0.3-0.5c9.5-14.9,23.1-34,27.6-38.9c-2.1,0.6-5.9,1-9.6,2c-7.4,2-15.4,4.9-16.2,2c-1.6-5.8,27-17.2,34.4-20
	c1.1-0.4,1.7-0.7,1.7-0.7s27.9,10.3,30.5,15.5C1123.5,867.7,1123.4,869.8,1122.9,872.2z"/>
<polygon class="st2" points="648.7,341 671.8,400.4 712.6,384.3 673.5,327.4 "/>
<path class="st6" d="M946.1,511.9c0,0,29.2,26,89.9,6.5c0,0,91-1.1,107.2,30.3c16.2,31.4,80.2,86.7,70.4,140.8
	c-9.8,54.2-85.5,186-85.5,186l-42.2-27.1c0,0,79-118.9,62.7-162.2s-16.2-43.3-16.2-43.3s-44.4-62.8-54.2-56.3s34.7,176.5,34.7,176.5
	s-172.2,60.7-227.5,16.2c0,0,40.1-202.5,26-196c0,0-30.9-37.8-67.2-47.7c-30.3-8.2-62.5-1.4-93.9-17.2
	c-27.4-13.7-55.1-42.5-55.9-48.8c-1.8-14.1-41.7-109.4-41.7-109.4l40.9-11.8c0,0,52.8,98.7,76.3,118.8c22,18.9,64.3,15.8,67.7,16.5
	C860.5,488.6,869.3,481.3,946.1,511.9z"/>
<line class="st7" x1="1029.5" y1="828.1" x2="1007.8" y2="848.4"/>
<g>
	<path class="st8" d="M268.3,620.6"/>
	<polygon class="st9" points="458.7,838.7 372.1,832.2 392.9,712.8 456.9,719 	"/>
	<path class="st9" d="M355.7,657.6c-2.1,17.1-17.7,29.3-34.8,27.2c-17.1-2.1-36-28-33.9-45.2c2.1-17.1,24.4-19,41.6-16.9
		C345.6,624.8,357.8,640.4,355.7,657.6z"/>
	<path class="st9" d="M525.3,639.9c6.8,15.9,25.2,23.2,41.1,16.3c15.9-6.8,26.7-37,19.9-52.9c-6.8-15.9-28.8-11.4-44.6-4.6
		C525.8,605.7,518.5,624.1,525.3,639.9z"/>
	<path class="st9" d="M552.9,619.2c2.7,45.4-30.2,93.5-60.5,127.6c-26.1,29.5-71.4,31.3-99.9,4c-31.8-30.4-66.8-73.6-69.5-118.1
		c-4.9-82.6,42.6-152.6,106.1-156.4S548,536.6,552.9,619.2z"/>
	<path class="st10" d="M454.7,558.3c0,0-0.2,8.9,9.8,15.7c3.5,2.4,9.8,3.4,15,4.8c5,1.3,11.8,2.2,15.7,3.5
		c11.6,4.1,16.2,10.5,16.2,10.5s-3.1-11-13.7-17.4c-3.8-2.3-10.6-3.8-15.9-5.2c-4.5-1.2-10.4-1.6-13.9-2.7
		C454.3,563.2,454.7,558.3,454.7,558.3z"/>
	<path class="st10" d="M421.1,566.4c0,0,0.6,8.9-9.2,16c-3.4,2.5-9.6,3.8-14.8,5.4c-5,1.5-11.7,2.6-15.5,4.1
		c-11.5,4.5-15.8,11.1-15.8,11.1s2.7-11.1,13-17.9c3.7-2.4,10.4-4.2,15.7-5.8c4.5-1.4,10.4-2,13.8-3.2
		C421.7,571.3,421.1,566.4,421.1,566.4z"/>
	<path class="st3" d="M435.2,602.4c0,0,7.6,45.9-8.2,63.8c-1.4,1.6-0.1,4,2,3.7l12.6-1.9c2-0.3,4-0.5,5.9-0.5
		c6.9,0,13.4-2.6,18.2-7.5l0.2-0.2"/>
	<path class="st3" d="M465.1,724.5"/>
	<path class="st3" d="M437.5,730.6"/>
	<circle class="st4" cx="399.2" cy="614" r="16"/>
	<circle cx="405.8" cy="612.2" r="8"/>
	<path class="st11" d="M380,618.5c-4.2-9.8,0.3-21.1,10.1-25.3s21.1,0.3,25.3,10.1L380,618.5z"/>
	<circle class="st4" cx="479.9" cy="606.1" r="16"/>
	<circle cx="482.7" cy="606.5" r="8"/>
	<path class="st11" d="M461.7,598.6c2.3-10.4,12.5-17,22.9-14.7c10.4,2.3,17,12.5,14.7,22.9L461.7,598.6z"/>
	<path class="st12" d="M607.8,906.8H197.1c0.1-0.2,0.1-0.3,0.2-0.5c23.8-56.7,47.1-106.3,53.5-119.9c1.2-2.5,2.8-4.8,4.7-6.8
		c10.7-11,48.3-47.5,73-47.5c21.8,0,36.2,27.5,42.1,41.2c2,4.8,5.4,8.8,9.8,11.5c0.5,0.3,1,0.6,1.5,0.9
		c15.5,8.3,49.4,23.6,76.2,16.5c9.2-2.5,17.6-7.6,24.1-16.6c31.9-44.1,55.3-38.4,68.4-35.6c12.2,2.6,26.8,45.5,28.8,51.7
		c0.2,0.5,0.3,1,0.4,1.5c1.6,6,13.5,51,27.7,103.2C607.7,906.5,607.7,906.7,607.8,906.8z"/>
	<path class="st13" d="M489.7,471.7c0,0,6.3-5.7-16.2-28.4s-71.7-1.4-83.6,9.6c0,0-46.9,4.6-66.2,34.3c-19.3,29.7-20,57.6-10.9,80.2
		s3.3,70.6,15.1,71s12.7-4.1,12.7-4.1s-11.1-48.2-5.3-62.6c6.8-16.8,8.1-39.8,39.7-65.6c28.7-23.4,41.7-11.9,50.1-7.4
		c0,0,9.5-15.2,33.5-11.4c29.4,4.6,59.7,27.6,69.1,49.3c9.5,21.7,9.8,70.2,16.5,70.2c6.7,0,12.1-3.6,12.1-3.6s5.3-74.8-2.1-90.5
		c0,0,1.5-9.8,0.9-20.4C554.2,477.1,514,448.6,489.7,471.7z"/>
	<polygon points="294.2,889.7 287.8,906.3 287.6,906.8 284.9,906.8 285.1,906.3 291.9,888.8 	"/>
	<polygon points="514.5,906.8 511.9,906.8 511.7,906.3 505.9,886.9 508.3,886.1 514.4,906.3 	"/>
	<path class="st14" d="M379.3,542c0,0,32.7-13.2,47.5-3c0,0,4.3,2.8,8.3,0s18.3-15.8,48.8-9"/>
	<path class="st14" d="M366.6,558.7c0,0,43-17.2,60.9-7.9c0,0,5.2,2.5,10.6-0.8s29.1-18.4,60.8-10.5"/>
	<path class="st14" d="M372.5,615.9c0,0-8.6-2.5-12.3,3.1"/>
	<path class="st14" d="M373.9,623c0,0-10.2-0.3-18.8,8"/>
	<path class="st14" d="M375.8,627.7c0,0-12.1,4.5-11.6,13.7"/>
	<path class="st14" d="M506,604c0,0,7-5.7,12.6-2"/>
	<path class="st14" d="M507.4,611c0,0,9.3-4.3,20.5,0.1"/>
	<path class="st14" d="M507.5,616.1c0,0,13-0.5,16,8.1"/>
	<path d="M473.5,719.7c-1-0.3-2.1-0.7-3.2-1c-4.9-1.5-10.6-3-16.6-3.1c-0.4,0-0.7,0-1.1,0c-1.4,0-2.8,0.2-4.2,0.4
		c-2.4,0.4-4.6,1.1-6.8,1.9c-0.4,0.1-0.7,0.3-1.1,0.4c-5.8,2.5-10.9,6.2-15.2,9.2c-0.4,0.2-0.7,0.5-1,0.7c-6.9,4.8-11.3,7-12.9-2.4
		c-3-17.9,13.5-37.9,33.9-41.3s36.9,11,39.9,29C486.8,723.5,481.8,722.3,473.5,719.7z"/>
</g>
<g>
	<g>
		<path class="st1" d="M952.7,301.8c8.6,12.8,22.6,22.6,37.3,26.8c3.1,0.9,4.4-3.9,1.3-4.8c-13.4-3.9-26.5-12.8-34.3-24.5
			C955.2,296.6,950.9,299.1,952.7,301.8L952.7,301.8z"/>
	</g>
</g>
<path class="st15" d="M612,288.3c-1.5,6.9-41.2,51.1-48.2,51.6c-10.5,0.7-50.9,20.7-67.1,31c-13.7,8.7-123.3,13.9-121.3,40.2
	c1,13.5,40.3-11.8,41.4,3.1c1.8,25.4-85.3,53.1-30.2,87.5c21.7,13.6,47.5-82.4,59.2-68.9c13.5,15.5-4.1,63.5,26.9,60
	c9.2-1,9.3-65.2,19.4-74.2c13.8-12.3,22.9-26.8,32-30.3c27.3-10.5,53.9-24.2,56.2-25.2l111.2-61.1l0,0c0,0,0.1,0,0.1,0
	c2.5-1.1-1.6-16.3-9.2-34c-7.6-17.7-15.9-31.1-18.4-30c0,0,0,0-0.1,0.1l0,0l-7.1,2.7c-16.6,6.2-30.2,18.5-38.2,34.4L612,288.3z"/>
<path class="st16" d="M593.6,302c-1.4,6.1-36.9,45.8-43.2,46.3c-9.4,0.7-45.6,18.5-60.1,27.8c-12.3,7.8-102.8,9.3-112.5,30.8
	c-4.2,9.2,29.1-7.8,44.7,4.6c17.8,14.2-80.1,50.9-30.8,81.7c19.4,12.1,36.8-73.3,52.4-69.4c18.5,4.6,1.5,63.2,29.3,60.1
	c8.2-0.9,7.7-58.6,12.8-65.2c10.2-13,20.5-24,28.6-27.2c24.5-9.4,48.3-21.7,50.3-22.5l99.6-54.7l0,0c0,0,0.1,0,0.1,0
	c2.3-1-1.4-14.6-8.2-30.5c-6.8-15.9-14.2-27.9-16.5-26.9c0,0,0,0-0.1,0l0,0l-6.4,2.4c-14.9,5.6-27.1,16.6-34.2,30.8L593.6,302z"/>
<g>
	<path class="st17" d="M479.3,302.2c-6.2,2.5-2.4,26.3,8.5,53.1c10.9,26.8,24.7,46.6,30.9,44l154.5-77.6l0,0c0,0,0.1,0,0.1,0
		c3.5-1.4-0.4-19.2-8.7-39.7s-17.9-36-21.4-34.6c0,0-0.1,0.1-0.1,0.1l0,0L479.3,302.2z"/>
	<path class="st18" d="M578.4,333.7c14.8-5.1,41.2-12.6,53.8-22.4c15.4-11.9,15.4-17.5,20-8.1c1.9,3.8-30.2,20-64.7,36.9
		c-34.6,17-61.7,27.2-63.6,23.5C522,359.8,542.1,346.4,578.4,333.7z"/>
</g>
<path class="st2" d="M619.2,339.3c-0.7,1.5-8.4,9.5-9.8,10.2c-6.9,3.4-22.1,7.8-19.8,13.5c2.8,6.7,35.5-9.2,35.5-9.2l35-11.6
	c0,0,53.8-27.5,6.3-62c-29.3-21.3-42.4,7.3-43.3,32.4c-0.1,3.7,0.5,8.9,0,12.8C622.4,331.6,620.5,336.6,619.2,339.3z"/>
<path class="st2" d="M633.1,323.2c0,0-16.6-29-32.9-33.3s-24.8-17.2-24.8-17.2s-2.5-14,8.1-6.6s33.2,17.8,46.1,32l8.6,7.7l-6.5-13.3
	c0,0-6.4-0.9,6.7,2.9c19.5,5.7,1.7-7.5,1.7-7.5l3.6-2.7L633.1,323.2z"/>
<path class="st2" d="M628.5,288.6c0,0-23.4-29.4-31.1-29.4c0,0-13.9-4.6-12.3-7.7c0,0,0-4.6,3.1-4.6s21.6,6.2,23.1,7.7
	s13.9,6.2,17,12.3s1.5-0.5,12.3,15.2C651.4,297.8,628.5,288.6,628.5,288.6z"/>
<path class="st2" d="M646.5,282.4c0,0-10.3-19.6-12-19.6c-1.7,0-6.8-9.8-12-11.4c-4.9-1.6-15.4-1.6-17.1-6.5c-0.8-2.2,0-3.3,3.4-4.9
	c3.4-1.6,12,0,15.4,1.6c3.4,1.6,17.5,6.9,19,11.6c1.5,4.7,12.1,16.9,12.8,24.7C656.7,285.6,646.5,282.4,646.5,282.4z"/>
<path class="st2" d="M662.2,282.4c0,0-4.6-15.4-5.3-20.4c-0.5-3.6-3.9-12-7-12c-3.1,0-6.2-6.2-6.2-7.7s0-3.1,3.1-1.5
	c3.1,1.5,9.2,3.1,10.8,4.6c1.5,1.5,9.2,13.9,9.2,15.4s4.8,23.2,5.5,26.3C673,290.1,662.2,282.4,662.2,282.4z"/>
<rect x="1007.7" y="847.8" class="st19" width="1" height="59"/>
<rect x="997.2" y="825.3" transform="matrix(0.6681 -0.7441 0.7441 0.6681 -293.2702 1020.8958)" class="st19" width="1" height="27.8"/>
<g class="st20">
	<path class="st21" d="M267,114.3c0,24.8,6.9,32.6,17.2,32.6c8,0,12-4.5,12-12.5c0-5.9-2.3-9.2-7.6-10.6c-1.6-0.5-2.2-1.6-2.2-3
		c0-2,0.5-2.8,4.1-3.7c9.1-3.7,25.6-10.9,29-10.9c1.6,0,2.8,1.1,3.1,3.4c0.8,10.5,1.9,20.9,1.9,32.2c0,20.5-14.5,33.4-41.2,33.4
		c-30.9,0-48.1-19.8-48.1-53.2c0-38.9,17.5-70.9,53.9-70.9c23.6,0,33.1,13.1,33.1,27.8c0,3.4-1.6,5.9-3.7,8.1
		c-5.8,5.9-19.4,13.1-24,13.1c-1.6,0-2.5-0.9-2.5-2.7c0-1.4,0.2-3.1,0.2-4.7c0-6.2-2.3-14.4-9.2-14.4C273.6,78.4,267,90.9,267,114.3
		z"/>
	<path class="st21" d="M340.1,172.4c-3-0.2-4.5-0.8-4.8-3.6c-0.6-7-1.1-14.2-1.1-21.7c0-36.5,9.2-77.1,42-95.5
		c1.6-0.8,2.7-1.2,3.7-1.2c1.2,0,2.2,0.5,3.6,1.2c29.7,19,40.7,53.2,40.7,94.8c0,6.7-0.3,13.7-1.1,21.2c-0.3,3.3-2,4.2-5,4.5
		c-3.6,0.3-8,0.5-12.2,0.5c-5.2,0-10.1-0.2-13.4-0.5c-2-0.3-3.1-1.2-3.1-3.3c0-3.4,2.5-10.6,2.5-20.1c0-6.2-3.1-8.9-10-8.9
		c-9.2,0-17.2,3.6-17.2,12.5c0,7,1.7,12.8,1.7,16.9c0.2,1.7-0.5,2.7-2.5,3c-3.4,0.3-8.1,0.5-13.1,0.5
		C347,172.5,343.7,172.5,340.1,172.4z M380.7,119.3c3.7-0.3,6.2-0.5,8.1-0.8c1.9-0.5,2.5-1.6,2.5-3.7c0-9.8-5-23.1-9.7-29.8
		c-0.8-0.9-1.2-1.6-1.9-1.6c-0.8,0-1.4,0.5-2.3,1.6c-7.8,8.9-11.7,25.4-11.7,35.4c0,1.4,0.6,1.9,1.6,1.9
		C369.1,122.2,374,119.7,380.7,119.3z"/>
	<path class="st21" d="M472.3,172.4c-3.6,0.2-8.3,0.3-13.9,0.3c-5.2,0-10.6,0-15.3-0.3c-1.6-0.2-2.7-1.1-3-2.7
		c-3-15.6-4.4-32.8-4.4-50.9c0-19.5,1.7-40.3,4.8-62.3c0.3-2.7,1.9-3.4,3.1-3.4c3.4-0.3,9.5-0.5,15.5-0.5c5,0,9.8,0.2,13.3,0.5
		c2.8,0.3,4.5,1.2,5.8,3.7c5.3,9.7,11.4,25.3,17,41.4c0.3,1.1,0.9,1.6,1.7,1.6c0.8,0,1.2-0.5,1.6-1.4c5.9-16.4,12-31.2,16.7-40.7
		c1.1-2.2,3.1-3.9,5.3-4.2c3.9-0.3,8.4-0.6,13.1-0.6c4.2,0,8.4,0.3,12.8,0.6c2.5,0.3,4.4,1.6,4.8,3.7c4.4,18.7,6.9,38.9,6.9,59.9
		c0,16.2-1.2,33.3-3.7,51.4c-0.3,2.5-1.9,3.7-3.7,3.9c-3.7,0.3-11.2,0.6-18.3,0.6c-5.5,0-10.3-0.3-13.4-0.6c-2-0.3-2.8-1.1-2.8-2.7
		c0-5.6,8-27.2,8-54c0-7.2-0.3-14.7-1.7-21.4c-0.2-0.8-0.6-1.1-1.2-1.1c-0.6,0-1.1,0.5-1.2,1.1c-6.1,16.7-12.6,35-20.8,50.7
		c-0.8,1.7-2.2,2.5-3.4,2.5c-1.4,0-2.8-0.8-3.7-2.5c-8.6-15.9-16.4-38.1-20.3-50.4c-0.3-0.8-0.9-1.2-1.6-1.2s-1.1,0.5-1.2,1.2
		c-1.2,7.8-1.6,16.4-1.6,24.8c0,27,8,46.2,8,50.6C475.3,171.4,474.2,172,472.3,172.4z"/>
	<path class="st21" d="M576.6,172.4c-3.4-0.2-5.3-0.8-5.5-4.5c-0.3-6.9-0.5-14.5-0.5-22.5c0-27.8,2.2-60.9,7.8-88
		c0.6-2.3,2-4.1,4.2-4.2c5.8-0.5,17.8-0.8,30.3-0.8c13.6,0,27.3,0.3,35.1,0.9c2.3,0.2,3,1.1,3,2.2c0,2-3.7,15.9-6.7,22.6
		c-0.5,1.2-1.4,1.7-2.5,1.7c-1.2,0-2.5-0.5-4.8-1.2c-4.8-1.6-11.7-3.3-21.1-3.3c-5.2,0-8,0.9-10,3c-2.3,2.7-3.6,9.5-3.6,15.6
		c0,3.3,1.4,4.7,4.2,4.7c5.5,0,12.6-2.5,21.5-2.5c6.4,0,11.1,1.1,11.1,3.9c0,3.3-3.1,15.6-5,21.2c-0.6,1.9-1.2,2.3-2.5,2.3
		c-2.2,0-9.1-2.5-16.2-2.5c-10.3,0-13.9,4.2-13.9,12c0,10.9,2.5,13.1,10.5,13.1c13.9,0,23.7-4.2,29.3-7c1.6-0.8,2-1.2,3-1.2
		c0.9,0,1.6,0.5,2,1.6c2,5.3,4.7,22.6,4.7,28.6c0,2.5-1.6,4.2-4.5,4.4c-10.1,0.5-22.2,0.6-33.7,0.6C599.1,173,586,172.8,576.6,172.4
		z"/>
	<path class="st21" d="M730.9,174.7c-35.1,0-46.2-20.9-46.2-47c0-40.1,15.8-77.3,45.9-77.3c30.3,0,45.9,37.2,45.9,77.3
		C776.5,153.8,765.5,174.7,730.9,174.7z M745.4,121.8c0-25.1-6.2-42.9-14.8-42.9c-9.1,0-14.7,18.1-14.7,42.8
		c0,16.4,5.3,22.8,14.8,22.8C740.2,144.4,745.4,137.9,745.4,121.8z"/>
	<path class="st21" d="M840.3,53.1c3.9-0.5,8.6-0.5,13-0.5c3.7,0,7.6,0.2,10.6,0.5c3,0.5,4.7,1.6,5.5,5.2
		c2.7,11.4,4.1,22.3,4.1,33.3c0,37.6-15.8,67.8-39.8,82.7c-1.4,0.8-2.7,1.2-4.1,1.2s-2.7-0.5-4.2-1.2C798.9,160,784.3,131,784.3,94
		c0-12,1.6-24.7,4.7-37.8c0.5-2,1.9-3.1,4.1-3.3c3.3-0.3,7.6-0.5,12-0.5c4.2,0,8.6,0.2,12.3,0.5c2.7,0.2,3.7,1.2,3.7,3
		c0,2.7-3.9,17-3.9,41.1c0,17,3.4,30.1,10,37.9c0.8,1.1,1.6,1.6,2.3,1.6c0.6,0,1.4-0.5,2.2-1.6c5.8-7,9.4-21.2,9.4-39.2
		c0-25-3.9-36.5-3.9-39.8C837.2,54,838,53.4,840.3,53.1L840.3,53.1z"/>
	<path class="st21" d="M889.5,172.4c-3.4-0.2-5.3-0.8-5.5-4.5c-0.3-6.9-0.5-14.5-0.5-22.5c0-27.8,2.2-60.9,7.8-88
		c0.6-2.3,2-4.1,4.2-4.2c5.8-0.5,17.8-0.8,30.3-0.8c13.6,0,27.3,0.3,35.1,0.9c2.3,0.2,3,1.1,3,2.2c0,2-3.7,15.9-6.7,22.6
		c-0.5,1.2-1.4,1.7-2.5,1.7c-1.2,0-2.5-0.5-4.8-1.2c-4.8-1.6-11.7-3.3-21.1-3.3c-5.2,0-8,0.9-10,3c-2.3,2.7-3.6,9.5-3.6,15.6
		c0,3.3,1.4,4.7,4.2,4.7c5.5,0,12.6-2.5,21.5-2.5c6.4,0,11.1,1.1,11.1,3.9c0,3.3-3.1,15.6-5,21.2c-0.6,1.9-1.2,2.3-2.5,2.3
		c-2.2,0-9.1-2.5-16.2-2.5c-10.3,0-13.9,4.2-13.9,12c0,10.9,2.5,13.1,10.5,13.1c13.9,0,23.7-4.2,29.3-7c1.6-0.8,2-1.2,3-1.2
		c0.9,0,1.6,0.5,2,1.6c2,5.3,4.7,22.6,4.7,28.6c0,2.5-1.6,4.2-4.5,4.4c-10.1,0.5-22.2,0.6-33.7,0.6C912,173,898.8,172.8,889.5,172.4
		z"/>
	<path class="st21" d="M981.6,53.7c5.6-0.9,25.1-1.6,31.7-1.6c27.3,0,47.1,7.8,47.1,32.2c0,14.7-7.2,24.8-17.8,33.6
		c-0.8,0.6-1.1,1.6-1.1,2.2c0,0.8,0.3,1.4,1.1,1.9c15.9,11.6,22.3,40.9,22.3,46.7c0,2.3-1.4,3.6-3.7,3.7c-3,0.2-8.1,0.3-13.4,0.3
		c-4.4,0-8.9-0.2-11.9-0.3c-3.3-0.2-4.5-1.1-4.8-3.3c-2.7-23.1-9.4-35.4-18.1-35.4c-5.6,0-8.3,3.7-8.3,11.1c0,8.4,3,22.8,3,24.8
		c0,1.7-1.1,2.5-3,2.7c-3.4,0.2-8.1,0.3-13.1,0.3c-4.2,0-8.3-0.2-12.2-0.3c-2.2-0.2-4.2-0.6-4.5-3.7c-1.4-12.8-2.5-28.7-2.5-46.4
		c0-20,1.4-42.3,5.3-65.1C978.2,54.8,979.4,54,981.6,53.7z M1006.6,114.8c8.9,0,21.2-14,21.2-28.6c0-8.7-5.3-12.3-12.5-12.3
		c-3.1,0-6.1,0.6-7.5,2c-3,3-4.8,14.8-4.8,28.7C1003,112.9,1003.9,114.8,1006.6,114.8z"/>
</g>
<g class="st20">
	<path class="st22" d="M267,114.3c0,24.8,6.9,32.6,17.2,32.6c8,0,12-4.5,12-12.5c0-5.9-2.3-9.2-7.6-10.6c-1.6-0.5-2.2-1.6-2.2-3
		c0-2,0.5-2.8,4.1-3.7c9.1-3.7,25.6-10.9,29-10.9c1.6,0,2.8,1.1,3.1,3.4c0.8,10.5,1.9,20.9,1.9,32.2c0,20.5-14.5,33.4-41.2,33.4
		c-30.9,0-48.1-19.8-48.1-53.2c0-38.9,17.5-70.9,53.9-70.9c23.6,0,33.1,13.1,33.1,27.8c0,3.4-1.6,5.9-3.7,8.1
		c-5.8,5.9-19.4,13.1-24,13.1c-1.6,0-2.5-0.9-2.5-2.7c0-1.4,0.2-3.1,0.2-4.7c0-6.2-2.3-14.4-9.2-14.4C273.6,78.4,267,90.9,267,114.3
		z"/>
	<path class="st22" d="M340.1,172.4c-3-0.2-4.5-0.8-4.8-3.6c-0.6-7-1.1-14.2-1.1-21.7c0-36.5,9.2-77.1,42-95.5
		c1.6-0.8,2.7-1.2,3.7-1.2c1.2,0,2.2,0.5,3.6,1.2c29.7,19,40.7,53.2,40.7,94.8c0,6.7-0.3,13.7-1.1,21.2c-0.3,3.3-2,4.2-5,4.5
		c-3.6,0.3-8,0.5-12.2,0.5c-5.2,0-10.1-0.2-13.4-0.5c-2-0.3-3.1-1.2-3.1-3.3c0-3.4,2.5-10.6,2.5-20.1c0-6.2-3.1-8.9-10-8.9
		c-9.2,0-17.2,3.6-17.2,12.5c0,7,1.7,12.8,1.7,16.9c0.2,1.7-0.5,2.7-2.5,3c-3.4,0.3-8.1,0.5-13.1,0.5
		C347,172.5,343.7,172.5,340.1,172.4z M380.7,119.3c3.7-0.3,6.2-0.5,8.1-0.8c1.9-0.5,2.5-1.6,2.5-3.7c0-9.8-5-23.1-9.7-29.8
		c-0.8-0.9-1.2-1.6-1.9-1.6c-0.8,0-1.4,0.5-2.3,1.6c-7.8,8.9-11.7,25.4-11.7,35.4c0,1.4,0.6,1.9,1.6,1.9
		C369.1,122.2,374,119.7,380.7,119.3z"/>
	<path class="st22" d="M472.3,172.4c-3.6,0.2-8.3,0.3-13.9,0.3c-5.2,0-10.6,0-15.3-0.3c-1.6-0.2-2.7-1.1-3-2.7
		c-3-15.6-4.4-32.8-4.4-50.9c0-19.5,1.7-40.3,4.8-62.3c0.3-2.7,1.9-3.4,3.1-3.4c3.4-0.3,9.5-0.5,15.5-0.5c5,0,9.8,0.2,13.3,0.5
		c2.8,0.3,4.5,1.2,5.8,3.7c5.3,9.7,11.4,25.3,17,41.4c0.3,1.1,0.9,1.6,1.7,1.6c0.8,0,1.2-0.5,1.6-1.4c5.9-16.4,12-31.2,16.7-40.7
		c1.1-2.2,3.1-3.9,5.3-4.2c3.9-0.3,8.4-0.6,13.1-0.6c4.2,0,8.4,0.3,12.8,0.6c2.5,0.3,4.4,1.6,4.8,3.7c4.4,18.7,6.9,38.9,6.9,59.9
		c0,16.2-1.2,33.3-3.7,51.4c-0.3,2.5-1.9,3.7-3.7,3.9c-3.7,0.3-11.2,0.6-18.3,0.6c-5.5,0-10.3-0.3-13.4-0.6c-2-0.3-2.8-1.1-2.8-2.7
		c0-5.6,8-27.2,8-54c0-7.2-0.3-14.7-1.7-21.4c-0.2-0.8-0.6-1.1-1.2-1.1c-0.6,0-1.1,0.5-1.2,1.1c-6.1,16.7-12.6,35-20.8,50.7
		c-0.8,1.7-2.2,2.5-3.4,2.5c-1.4,0-2.8-0.8-3.7-2.5c-8.6-15.9-16.4-38.1-20.3-50.4c-0.3-0.8-0.9-1.2-1.6-1.2s-1.1,0.5-1.2,1.2
		c-1.2,7.8-1.6,16.4-1.6,24.8c0,27,8,46.2,8,50.6C475.3,171.4,474.2,172,472.3,172.4z"/>
	<path class="st22" d="M576.6,172.4c-3.4-0.2-5.3-0.8-5.5-4.5c-0.3-6.9-0.5-14.5-0.5-22.5c0-27.8,2.2-60.9,7.8-88
		c0.6-2.3,2-4.1,4.2-4.2c5.8-0.5,17.8-0.8,30.3-0.8c13.6,0,27.3,0.3,35.1,0.9c2.3,0.2,3,1.1,3,2.2c0,2-3.7,15.9-6.7,22.6
		c-0.5,1.2-1.4,1.7-2.5,1.7c-1.2,0-2.5-0.5-4.8-1.2c-4.8-1.6-11.7-3.3-21.1-3.3c-5.2,0-8,0.9-10,3c-2.3,2.7-3.6,9.5-3.6,15.6
		c0,3.3,1.4,4.7,4.2,4.7c5.5,0,12.6-2.5,21.5-2.5c6.4,0,11.1,1.1,11.1,3.9c0,3.3-3.1,15.6-5,21.2c-0.6,1.9-1.2,2.3-2.5,2.3
		c-2.2,0-9.1-2.5-16.2-2.5c-10.3,0-13.9,4.2-13.9,12c0,10.9,2.5,13.1,10.5,13.1c13.9,0,23.7-4.2,29.3-7c1.6-0.8,2-1.2,3-1.2
		c0.9,0,1.6,0.5,2,1.6c2,5.3,4.7,22.6,4.7,28.6c0,2.5-1.6,4.2-4.5,4.4c-10.1,0.5-22.2,0.6-33.7,0.6C599.1,173,586,172.8,576.6,172.4
		z"/>
	<path class="st22" d="M730.9,174.7c-35.1,0-46.2-20.9-46.2-47c0-40.1,15.8-77.3,45.9-77.3c30.3,0,45.9,37.2,45.9,77.3
		C776.5,153.8,765.5,174.7,730.9,174.7z M745.4,121.8c0-25.1-6.2-42.9-14.8-42.9c-9.1,0-14.7,18.1-14.7,42.8
		c0,16.4,5.3,22.8,14.8,22.8C740.2,144.4,745.4,137.9,745.4,121.8z"/>
	<path class="st22" d="M840.3,53.1c3.9-0.5,8.6-0.5,13-0.5c3.7,0,7.6,0.2,10.6,0.5c3,0.5,4.7,1.6,5.5,5.2
		c2.7,11.4,4.1,22.3,4.1,33.3c0,37.6-15.8,67.8-39.8,82.7c-1.4,0.8-2.7,1.2-4.1,1.2s-2.7-0.5-4.2-1.2C798.9,160,784.3,131,784.3,94
		c0-12,1.6-24.7,4.7-37.8c0.5-2,1.9-3.1,4.1-3.3c3.3-0.3,7.6-0.5,12-0.5c4.2,0,8.6,0.2,12.3,0.5c2.7,0.2,3.7,1.2,3.7,3
		c0,2.7-3.9,17-3.9,41.1c0,17,3.4,30.1,10,37.9c0.8,1.1,1.6,1.6,2.3,1.6c0.6,0,1.4-0.5,2.2-1.6c5.8-7,9.4-21.2,9.4-39.2
		c0-25-3.9-36.5-3.9-39.8C837.2,54,838,53.4,840.3,53.1L840.3,53.1z"/>
	<path class="st22" d="M889.5,172.4c-3.4-0.2-5.3-0.8-5.5-4.5c-0.3-6.9-0.5-14.5-0.5-22.5c0-27.8,2.2-60.9,7.8-88
		c0.6-2.3,2-4.1,4.2-4.2c5.8-0.5,17.8-0.8,30.3-0.8c13.6,0,27.3,0.3,35.1,0.9c2.3,0.2,3,1.1,3,2.2c0,2-3.7,15.9-6.7,22.6
		c-0.5,1.2-1.4,1.7-2.5,1.7c-1.2,0-2.5-0.5-4.8-1.2c-4.8-1.6-11.7-3.3-21.1-3.3c-5.2,0-8,0.9-10,3c-2.3,2.7-3.6,9.5-3.6,15.6
		c0,3.3,1.4,4.7,4.2,4.7c5.5,0,12.6-2.5,21.5-2.5c6.4,0,11.1,1.1,11.1,3.9c0,3.3-3.1,15.6-5,21.2c-0.6,1.9-1.2,2.3-2.5,2.3
		c-2.2,0-9.1-2.5-16.2-2.5c-10.3,0-13.9,4.2-13.9,12c0,10.9,2.5,13.1,10.5,13.1c13.9,0,23.7-4.2,29.3-7c1.6-0.8,2-1.2,3-1.2
		c0.9,0,1.6,0.5,2,1.6c2,5.3,4.7,22.6,4.7,28.6c0,2.5-1.6,4.2-4.5,4.4c-10.1,0.5-22.2,0.6-33.7,0.6C912,173,898.8,172.8,889.5,172.4
		z"/>
	<path class="st22" d="M981.6,53.7c5.6-0.9,25.1-1.6,31.7-1.6c27.3,0,47.1,7.8,47.1,32.2c0,14.7-7.2,24.8-17.8,33.6
		c-0.8,0.6-1.1,1.6-1.1,2.2c0,0.8,0.3,1.4,1.1,1.9c15.9,11.6,22.3,40.9,22.3,46.7c0,2.3-1.4,3.6-3.7,3.7c-3,0.2-8.1,0.3-13.4,0.3
		c-4.4,0-8.9-0.2-11.9-0.3c-3.3-0.2-4.5-1.1-4.8-3.3c-2.7-23.1-9.4-35.4-18.1-35.4c-5.6,0-8.3,3.7-8.3,11.1c0,8.4,3,22.8,3,24.8
		c0,1.7-1.1,2.5-3,2.7c-3.4,0.2-8.1,0.3-13.1,0.3c-4.2,0-8.3-0.2-12.2-0.3c-2.2-0.2-4.2-0.6-4.5-3.7c-1.4-12.8-2.5-28.7-2.5-46.4
		c0-20,1.4-42.3,5.3-65.1C978.2,54.8,979.4,54,981.6,53.7z M1006.6,114.8c8.9,0,21.2-14,21.2-28.6c0-8.7-5.3-12.3-12.5-12.3
		c-3.1,0-6.1,0.6-7.5,2c-3,3-4.8,14.8-4.8,28.7C1003,112.9,1003.9,114.8,1006.6,114.8z"/>
</g>
</svg>
