<?xml version="1.0" encoding="utf-8"?>
<!-- Generator: Adobe Illustrator 25.0.0, SVG Export Plug-In . SVG Version: 6.00 Build 0)  -->
<svg version="1.1" id="Layer_1" xmlns="http://www.w3.org/2000/svg" xmlns:xlink="http://www.w3.org/1999/xlink" x="0px" y="0px"
	 viewBox="0 0 1370 910" style="enable-background:new 0 0 1370 910;" xml:space="preserve">
<style type="text/css">
	.st0{fill:#9478B5;}
	.st1{fill:#F2BB09;stroke:#F29313;stroke-width:5;stroke-miterlimit:10;}
	.st2{fill:#F4B0EF;}
	.st3{fill:#EACCB2;}
	.st4{fill:#342614;}
	.st5{fill:none;stroke:#000000;stroke-width:2;stroke-miterlimit:10;}
	.st6{fill:#F2EFF6;}
	.st7{fill:#E8C5AA;}
	.st8{fill:#3B2A56;}
	.st9{fill:#332615;}
	.st10{fill:none;stroke:#010202;stroke-miterlimit:10;}
	.st11{fill:#5C412B;}
	.st12{fill:#F5D8BC;}
	.st13{fill:none;stroke:#000000;stroke-miterlimit:10;}
	.st14{fill:#AC3CBC;}
</style>
<g>
	<path class="st0" d="M1367.1,50.2v810.5c0,24-16.1,44-36.9,47.4c-2.1,0.3-4.2,0.5-6.3,0.5H44.4c-23.7,0-43.2-21.6-43.2-48V50.2
		c0-26.4,19.4-48,43.2-48h1279.6C1347.7,2.2,1367.1,23.8,1367.1,50.2z"/>
	<g>
		<path class="st1" d="M165.7,141.6c2.2,5.2,4.8,22.2,4.8,28.3c0,2.7-1.7,4.5-5,4.7c-7.6,0.5-16.9,0.6-25.8,0.6
			c-11.9,0-23.3-0.3-31.2-0.6c-3.4-0.2-5.3-0.8-5.5-4.5c-0.3-6.7-0.5-14.2-0.5-22c-0.2-28.4,1.7-61.7,6.9-89
			c0.5-2.2,1.7-3.6,3.7-3.7c2.8-0.3,7.8-0.5,13.4-0.5c6.1,0,12.5,0.3,16.1,0.6c2.3,0.2,3,1.1,3,2.5c0,3.7-12.3,51.5-12.3,79.8
			c0,8.4,1.9,10.1,7.2,10.1c6.6,0,14-3.1,19.2-6.2c2-1.2,3-1.6,3.7-1.6C164.4,140.1,165.2,140.4,165.7,141.6z"/>
		<path class="st1" d="M182.7,174.6c-3.4-0.2-5.3-0.8-5.5-4.5c-0.3-6.9-0.5-14.5-0.5-22.5c0-27.8,2.2-60.9,7.8-88
			c0.6-2.3,2-4.1,4.2-4.2c5.8-0.5,17.8-0.8,30.3-0.8c13.6,0,27.3,0.3,35.1,0.9c2.3,0.2,3,1.1,3,2.2c0,2-3.7,15.9-6.7,22.6
			c-0.5,1.2-1.4,1.7-2.5,1.7c-1.2,0-2.5-0.5-4.8-1.2c-4.8-1.6-11.7-3.3-21.1-3.3c-5.2,0-8,0.9-10,3c-2.3,2.7-3.6,9.5-3.6,15.6
			c0,3.3,1.4,4.7,4.2,4.7c5.5,0,12.6-2.5,21.5-2.5c6.4,0,11.1,1.1,11.1,3.9c0,3.3-3.1,15.6-5,21.2c-0.6,1.9-1.2,2.3-2.5,2.3
			c-2.2,0-9.1-2.5-16.2-2.5c-10.3,0-13.9,4.2-13.9,12c0,10.9,2.5,13.1,10.5,13.1c13.9,0,23.7-4.2,29.3-7c1.6-0.8,2-1.2,3-1.2
			c0.9,0,1.6,0.5,2,1.6c2,5.3,4.7,22.6,4.7,28.6c0,2.5-1.6,4.2-4.5,4.4c-10.1,0.5-22.2,0.6-33.7,0.6
			C205.2,175.2,192.1,175,182.7,174.6z"/>
		<path class="st1" d="M320.2,55.3c3.9-0.5,8.6-0.5,13-0.5c3.7,0,7.6,0.2,10.6,0.5c3,0.5,4.7,1.6,5.5,5.2
			c2.7,11.4,4.1,22.3,4.1,33.3c0,37.6-15.8,67.8-39.8,82.7c-1.4,0.8-2.7,1.2-4.1,1.2c-1.4,0-2.7-0.5-4.2-1.2
			c-26.4-14.2-41.1-43.2-41.1-80.2c0-12,1.6-24.7,4.7-37.8c0.5-2,1.9-3.1,4.1-3.3c3.3-0.3,7.6-0.5,12-0.5c4.2,0,8.6,0.2,12.3,0.5
			c2.7,0.2,3.7,1.2,3.7,3c0,2.7-3.9,17-3.9,41.1c0,17,3.4,30.1,10,37.9c0.8,1.1,1.6,1.6,2.3,1.6c0.6,0,1.4-0.5,2.2-1.6
			c5.8-7,9.4-21.2,9.4-39.2c0-25-3.9-36.5-3.9-39.8C317.1,56.2,317.9,55.6,320.2,55.3L320.2,55.3z"/>
		<path class="st1" d="M369.4,174.6c-3.4-0.2-5.3-0.8-5.5-4.5c-0.3-6.9-0.5-14.5-0.5-22.5c0-27.8,2.2-60.9,7.8-88
			c0.6-2.3,2-4.1,4.2-4.2c5.8-0.5,17.8-0.8,30.3-0.8c13.6,0,27.3,0.3,35.1,0.9c2.3,0.2,3,1.1,3,2.2c0,2-3.7,15.9-6.7,22.6
			c-0.5,1.2-1.4,1.7-2.5,1.7c-1.2,0-2.5-0.5-4.8-1.2c-4.8-1.6-11.7-3.3-21.1-3.3c-5.2,0-8,0.9-10,3c-2.3,2.7-3.6,9.5-3.6,15.6
			c0,3.3,1.4,4.7,4.2,4.7c5.5,0,12.6-2.5,21.5-2.5c6.4,0,11.1,1.1,11.1,3.9c0,3.3-3.1,15.6-5,21.2c-0.6,1.9-1.2,2.3-2.5,2.3
			c-2.2,0-9.1-2.5-16.2-2.5c-10.3,0-13.9,4.2-13.9,12c0,10.9,2.5,13.1,10.5,13.1c13.9,0,23.7-4.2,29.3-7c1.6-0.8,2-1.2,3-1.2
			c0.9,0,1.6,0.5,2,1.6c2,5.3,4.7,22.6,4.7,28.6c0,2.5-1.6,4.2-4.5,4.4c-10.1,0.5-22.2,0.6-33.7,0.6
			C391.9,175.2,378.8,175,369.4,174.6z"/>
		<path class="st1" d="M515.8,141.6c2.2,5.2,4.8,22.2,4.8,28.3c0,2.7-1.7,4.5-5,4.7c-7.6,0.5-16.9,0.6-25.8,0.6
			c-11.9,0-23.3-0.3-31.2-0.6c-3.4-0.2-5.3-0.8-5.5-4.5c-0.3-6.7-0.5-14.2-0.5-22c-0.2-28.4,1.7-61.7,6.9-89
			c0.5-2.2,1.7-3.6,3.7-3.7c2.8-0.3,7.8-0.5,13.4-0.5c6.1,0,12.5,0.3,16.1,0.6c2.3,0.2,3,1.1,3,2.5c0,3.7-12.3,51.5-12.3,79.8
			c0,8.4,1.9,10.1,7.2,10.1c6.6,0,14-3.1,19.2-6.2c2-1.2,3-1.6,3.7-1.6C514.6,140.1,515.4,140.4,515.8,141.6z"/>
		<path class="st1" d="M551.3,122.7c0-36.8,16.7-69.9,48.1-69.9c24.8,0,35.3,19,35.3,36.8c0,4.7-1.2,7.8-4.1,10.8
			c-4.2,5.3-16.1,13.4-21.4,13.4c-1.7,0-2.3-1.2-2.3-3.6s0.3-5.6,0.3-8.6c0-10.1-2.3-20.8-10.1-20.8c-8.6,0-13.4,12.5-13.4,34
			c0,21.7,6.2,28.7,17.6,28.7c11.2,0,19.4-7.6,25.3-18.1c0.8-1.1,1.6-1.6,2.5-1.6c3.6,0,6.7,7.5,6.7,17.8c0,18-12.2,35.1-39,35.1
			C567.8,176.9,551.3,158.6,551.3,122.7z"/>
		<path class="st1" d="M688.3,176.9c-35.1,0-46.2-20.9-46.2-47c0-40.1,15.8-77.3,45.9-77.3c30.3,0,45.9,37.2,45.9,77.3
			C733.9,156,723,176.9,688.3,176.9z M702.9,124c0-25.1-6.2-42.9-14.8-42.9c-9.1,0-14.7,18.1-14.7,42.8c0,16.4,5.3,22.8,14.8,22.8
			C697.7,146.6,702.9,140.1,702.9,124z"/>
		<path class="st1" d="M780.9,174.6c-3.6,0.2-8.3,0.3-13.9,0.3c-5.2,0-10.6,0-15.3-0.3c-1.6-0.2-2.7-1.1-3-2.7
			c-3-15.6-4.4-32.8-4.4-50.9c0-19.5,1.7-40.3,4.8-62.3c0.3-2.7,1.9-3.4,3.1-3.4c3.4-0.3,9.5-0.5,15.5-0.5c5,0,9.8,0.2,13.3,0.5
			c2.8,0.3,4.5,1.2,5.8,3.7c5.3,9.7,11.4,25.3,17,41.4c0.3,1.1,0.9,1.6,1.7,1.6s1.2-0.5,1.6-1.4c5.9-16.4,12-31.2,16.7-40.7
			c1.1-2.2,3.1-3.9,5.3-4.2c3.9-0.3,8.4-0.6,13.1-0.6c4.2,0,8.4,0.3,12.8,0.6c2.5,0.3,4.4,1.6,4.8,3.7c4.4,18.7,6.9,38.9,6.9,59.9
			c0,16.2-1.2,33.3-3.7,51.4c-0.3,2.5-1.9,3.7-3.7,3.9c-3.7,0.3-11.2,0.6-18.3,0.6c-5.5,0-10.3-0.3-13.4-0.6c-2-0.3-2.8-1.1-2.8-2.7
			c0-5.6,8-27.2,8-54c0-7.2-0.3-14.7-1.7-21.4c-0.2-0.8-0.6-1.1-1.2-1.1c-0.6,0-1.1,0.5-1.2,1.1c-6.1,16.7-12.6,35-20.8,50.7
			c-0.8,1.7-2.2,2.5-3.4,2.5c-1.4,0-2.8-0.8-3.7-2.5c-8.6-15.9-16.4-38.1-20.3-50.4c-0.3-0.8-0.9-1.2-1.6-1.2
			c-0.6,0-1.1,0.5-1.2,1.2c-1.2,7.8-1.6,16.4-1.6,24.8c0,27,8,46.2,8,50.6C783.9,173.6,782.8,174.2,780.9,174.6z"/>
		<path class="st1" d="M888.8,174.4c-2.2-0.2-3.9-0.6-4.5-3.7c-2.2-11.9-3.7-29-3.7-48.1c0-20.3,1.6-43.2,6.2-64
			c0.5-1.9,1.7-3.1,4.1-3.3c5-0.5,12.8-0.6,20.3-0.6c23.1,0,33.9,2.8,42.5,11.2c6.4,6.6,8.9,16.2,8.9,28.3
			c0,28.6-16.9,40.7-34.5,48.6c-10.8,4.8-13.7,7.5-13.7,13.3s3,13.6,3,15.8c0,1.7-1.1,2.5-3,2.7c-3.3,0.3-8.3,0.5-13.4,0.5
			C896.8,174.9,892.5,174.7,888.8,174.4z M925.8,117.3c4.5-4.5,7.8-14.2,7.8-24.5c0-10.1-3.3-16.4-12.6-16.4c-3.1,0-4.7,0.5-5.9,1.7
			c-3.4,3.6-5,16.4-5,33.6c0,7.6,0.8,11.1,3.7,11.1C916.7,122.7,922.2,121,925.8,117.3z"/>
		<path class="st1" d="M1032.4,141.6c2.2,5.2,4.8,22.2,4.8,28.3c0,2.7-1.7,4.5-5,4.7c-7.6,0.5-16.9,0.6-25.8,0.6
			c-11.9,0-23.3-0.3-31.2-0.6c-3.4-0.2-5.3-0.8-5.5-4.5c-0.3-6.7-0.5-14.2-0.5-22c-0.2-28.4,1.7-61.7,6.9-89
			c0.5-2.2,1.7-3.6,3.7-3.7c2.8-0.3,7.8-0.5,13.4-0.5c6.1,0,12.5,0.3,16.1,0.6c2.3,0.2,3,1.1,3,2.5c0,3.7-12.3,51.5-12.3,79.8
			c0,8.4,1.9,10.1,7.2,10.1c6.6,0,14.1-3.1,19.2-6.2c2-1.2,3-1.6,3.7-1.6C1031.2,140.1,1032,140.4,1032.4,141.6z"/>
		<path class="st1" d="M1049.4,174.6c-3.4-0.2-5.3-0.8-5.5-4.5c-0.3-6.9-0.5-14.5-0.5-22.5c0-27.8,2.2-60.9,7.8-88
			c0.6-2.3,2-4.1,4.2-4.2c5.8-0.5,17.8-0.8,30.3-0.8c13.6,0,27.3,0.3,35.1,0.9c2.3,0.2,3,1.1,3,2.2c0,2-3.7,15.9-6.7,22.6
			c-0.5,1.2-1.4,1.7-2.5,1.7c-1.2,0-2.5-0.5-4.8-1.2c-4.8-1.6-11.7-3.3-21.1-3.3c-5.2,0-8,0.9-10,3c-2.3,2.7-3.6,9.5-3.6,15.6
			c0,3.3,1.4,4.7,4.2,4.7c5.5,0,12.6-2.5,21.5-2.5c6.4,0,11.1,1.1,11.1,3.9c0,3.3-3.1,15.6-5,21.2c-0.6,1.9-1.2,2.3-2.5,2.3
			c-2.2,0-9.1-2.5-16.2-2.5c-10.3,0-13.9,4.2-13.9,12c0,10.9,2.5,13.1,10.5,13.1c13.9,0,23.7-4.2,29.3-7c1.6-0.8,2-1.2,3-1.2
			s1.6,0.5,2,1.6c2,5.3,4.7,22.6,4.7,28.6c0,2.5-1.6,4.2-4.5,4.4c-10.1,0.5-22.2,0.6-33.7,0.6C1071.9,175.2,1058.8,175,1049.4,174.6
			z"/>
		<path class="st1" d="M1154.4,174.4c-2.3-0.2-4.2-1.2-4.5-5c-0.8-5.9-1.1-13.9-1.1-22.3c0-33.1,3.7-51.5,3.7-58.4
			c0-2.2-0.6-3.6-3.4-3.6c-9.5,0-16.5,4.5-20,4.5c-1.2,0-2.2-0.8-2.2-2.8c0-4.5,1.9-19.5,3.1-25.3c0.6-1.9,1.9-3.1,4.2-3.9
			c5-1.7,18.1-4.1,35.4-4.1c16.4,0,28.9,2,35.1,5.2c3,1.9,3.4,3.6,3.3,7c-0.2,7.2-1.2,16.9-2.5,22.3c-0.6,1.7-1.2,2.3-2.3,2.3
			c-3.1,0-8.7-4.8-17-4.8c-2.5,0-3.6,1.1-4.2,4.2c-0.8,5.5-1.4,12.3-1.4,19.8c0,30,6.4,56.4,6.4,61c0,2.2-0.9,3.3-3.3,3.7
			c-2.8,0.5-8.4,0.8-14.5,0.8C1164.3,175.2,1158.6,175,1154.4,174.4z"/>
		<path class="st1" d="M1218.5,174.6c-3.4-0.2-5.3-0.8-5.5-4.5c-0.3-6.9-0.5-14.5-0.5-22.5c0-27.8,2.2-60.9,7.8-88
			c0.6-2.3,2-4.1,4.2-4.2c5.8-0.5,17.8-0.8,30.3-0.8c13.6,0,27.3,0.3,35.1,0.9c2.3,0.2,3,1.1,3,2.2c0,2-3.7,15.9-6.7,22.6
			c-0.5,1.2-1.4,1.7-2.5,1.7c-1.2,0-2.5-0.5-4.8-1.2c-4.8-1.6-11.7-3.3-21.1-3.3c-5.2,0-8,0.9-10,3c-2.3,2.7-3.6,9.5-3.6,15.6
			c0,3.3,1.4,4.7,4.2,4.7c5.5,0,12.6-2.5,21.5-2.5c6.4,0,11.1,1.1,11.1,3.9c0,3.3-3.1,15.6-5,21.2c-0.6,1.9-1.2,2.3-2.5,2.3
			c-2.2,0-9.1-2.5-16.2-2.5c-10.3,0-13.9,4.2-13.9,12c0,10.9,2.5,13.1,10.5,13.1c13.9,0,23.7-4.2,29.3-7c1.6-0.8,2-1.2,3-1.2
			s1.6,0.5,2,1.6c2,5.3,4.7,22.6,4.7,28.6c0,2.5-1.6,4.2-4.5,4.4c-10.1,0.5-22.2,0.6-33.7,0.6C1241,175.2,1227.9,175,1218.5,174.6z"
			/>
	</g>
	<path class="st2" d="M292.8,619.7"/>
	<polygon class="st3" points="483.2,837.8 396.5,831.3 417.4,711.9 481.3,718.1 	"/>
	<path class="st3" d="M380.2,656.7c-2.1,17.1-17.7,29.3-34.8,27.2s-36-28-33.9-45.2c2.1-17.1,24.4-19,41.6-16.9
		S382.3,639.5,380.2,656.7z"/>
	<path class="st3" d="M549.8,639c6.8,15.9,25.2,23.2,41.1,16.4c15.9-6.8,26.7-37,19.9-52.9c-6.8-15.9-28.8-11.4-44.6-4.6
		C550.3,604.8,543,623.2,549.8,639z"/>
	<path class="st3" d="M577.3,618.3c2.7,45.4-30.2,93.5-60.5,127.6c-26.1,29.5-71.4,31.3-99.9,4.1c-31.8-30.4-66.8-73.6-69.5-118.1
		c-4.9-82.6,42.6-152.6,106.1-156.3C517.1,471.8,572.5,535.7,577.3,618.3z"/>
	<path class="st4" d="M479.1,557.4c0,0-0.2,8.9,9.8,15.7c3.5,2.4,9.8,3.4,15,4.8c5,1.3,11.8,2.2,15.7,3.5
		c11.6,4.1,16.2,10.5,16.2,10.5s-3.1-11-13.7-17.4c-3.8-2.3-10.6-3.8-15.9-5.2c-4.6-1.2-10.4-1.6-13.9-2.7
		C478.7,562.3,479.1,557.4,479.1,557.4z"/>
	<path class="st4" d="M448.5,571c0,0-1.1,8.9-12.1,14c-3.8,1.8-10.2,1.9-15.6,2.5c-5.2,0.6-12,0.4-16,1.1c-12.1,2.3-17.6,8-17.6,8
		s4.7-10.4,16.2-15.2c4.1-1.7,11-2.2,16.5-2.8c4.7-0.5,10.6,0,14.1-0.6C448.1,575.9,448.5,571,448.5,571z"/>
	<path class="st5" d="M459.6,601.5c0,0,7.6,45.9-8.2,63.8c-1.4,1.6-0.1,4,2,3.7l12.6-1.9c2-0.3,4-0.4,5.9-0.5
		c6.8,0,13.4-2.6,18.2-7.5l0.2-0.2"/>
	<path class="st5" d="M489.5,723.6"/>
	<path class="st5" d="M462,729.7"/>
	<circle class="st6" cx="423.6" cy="613.1" r="16"/>
	<circle cx="430.3" cy="611.3" r="8"/>
	<path class="st7" d="M404.5,617.6c-4.2-9.8,0.3-21.1,10.1-25.3c9.8-4.2,21.1,0.3,25.3,10.1L404.5,617.6z"/>
	<circle class="st6" cx="504.4" cy="605.2" r="16"/>
	<circle cx="507.1" cy="605.6" r="8"/>
	<path class="st7" d="M486.1,597.7c2.3-10.4,12.5-17,22.9-14.7c10.4,2.3,17,12.5,14.7,22.9L486.1,597.7z"/>
	<path class="st8" d="M632.2,908.4H221.6c0.1-0.2,0.1-0.4,0.2-0.5c23.8-56.7,57.2-117,87.2-132c19.5-9.8,58.9-4.9,78,1
		c4.9,1.5,13.5,6.7,17.9,9.4c0.5,0.3,1,0.6,1.6,0.9c15.5,8.3,49.4,23.6,76.2,16.5c9.2-2.5,17.5-4.3,28.4-6.8
		c57.2-13.2,88.9,20.5,89,21c1.6,6,18,37.8,32.1,90C632.1,908.1,632.2,908.2,632.2,908.4z"/>
	<path class="st9" d="M514.2,470.8c0,0,6.3-5.7-16.3-28.4c-22.6-22.7-71.7-1.4-83.6,9.6c0,0-46.9,4.6-66.2,34.3s-20,57.6-10.9,80.2
		s3.3,70.6,15.1,71c11.8,0.4,12.7-4.1,12.7-4.1s-11.1-48.2-5.3-62.6c6.8-16.8,8.1-39.8,39.7-65.6c28.7-23.4,41.7-11.9,50.1-7.4
		c0,0,9.5-15.2,33.5-11.4c29.4,4.6,59.7,27.6,69.1,49.3s9.7,70.2,16.5,70.2c6.7,0.1,12.1-3.6,12.1-3.6s5.3-74.8-2.1-90.5
		c0,0,1.5-9.7,0.9-20.4C578.7,476.2,538.4,447.7,514.2,470.8z"/>
	<polygon points="318.7,891.3 312.2,907.9 312,908.4 309.3,908.4 309.5,907.9 316.3,890.4 	"/>
	<polygon points="539,908.4 536.3,908.4 536.1,907.9 530.3,888.5 532.7,887.7 538.8,907.9 	"/>
	<path class="st10" d="M403.7,541c0,0,32.7-13.2,47.5-3c0,0,4.3,2.8,8.3,0c4-2.8,18.3-15.8,48.8-9"/>
	<path class="st10" d="M391,557.8c0,0,43-17.2,60.9-7.9c0,0,5.2,2.5,10.6-0.9s29.1-18.4,60.8-10.5"/>
	<path class="st10" d="M396.9,615c0,0-8.6-2.5-12.3,3.1"/>
	<path class="st10" d="M398.3,622.1c0,0-10.2-0.3-18.8,8"/>
	<path class="st10" d="M400.2,626.8c0,0-12.2,4.6-11.6,13.7"/>
	<path class="st10" d="M530.4,603c0,0,7-5.7,12.6-2"/>
	<path class="st10" d="M531.9,610.1c0,0,9.3-4.3,20.5,0.1"/>
	<path class="st10" d="M532,615.2c0,0,13-0.5,16,8.1"/>
	<path class="st11" d="M923.9,494.4c0,0-66.3-71.8-158.7,28.1s-31.9,211.5-31.9,211.5s8.2,12.3-19.5,20.3
		c-10.7,3.1,240.7,91.1,292.3,39.8c0,0-22.5-18,3-49.6c19.3-23.9,28.3-79.3,4.9-176.2C990.5,471.5,923.9,494.4,923.9,494.4z"/>
	<path class="st12" d="M796.5,647.8c-4,16-20.2,25.7-36.2,21.7c-16-4-30.9-30.8-26.8-46.8c4-16,25.4-15.1,41.4-11.1
		C790.8,615.6,800.5,631.9,796.5,647.8z"/>
	<path class="st12" d="M959.4,651.1c4.6,15.8,21.2,24.9,37,20.3s29.7-31.9,25.1-47.8c-4.6-15.8-25.9-14.2-41.8-9.6
		C963.9,618.7,954.8,635.3,959.4,651.1z"/>
	<path class="st12" d="M989.4,644.5c-2.8,43.3-39.7,85-72.3,113.8c-28.2,24.9-71.4,21.2-95.1-7.9c-26.5-32.5-54.7-77.6-51.9-120.1
		c5.1-78.9,58.4-139.6,119-135.7C949.6,498.5,994.5,565.6,989.4,644.5z"/>
	<path class="st5" d="M878.6,640.5c0,0-3.5,17.2-12,18.6c-1.1,0.2-2.1,0.6-2.8,1.4c-1.2,1.3-2.3,3.5,0.2,6.6
		c4.1,5.3,8.6,3.3,8.6,3.3"/>
	<path class="st5" d="M827.9,693.5c0,0,19.5,27,46.6,29.3c13.3,1.1,27.4-13,43.9-21.2"/>
	<path class="st5" d="M826.7,602c0,0-11.1,0.7-10.8-7"/>
	<path class="st5" d="M830.1,597.8c0,0-6.7-0.1-4.4-7.2"/>
	<path class="st5" d="M824.9,608.2c0,0-10.8,2-10.6-5.7"/>
	<circle class="st6" cx="839.9" cy="608.4" r="15.3"/>
	<circle cx="835.2" cy="609.3" r="7.6"/>
	<path class="st5" d="M919.3,605.1c0,0,11.1,0.7,10.8-7"/>
	<path class="st5" d="M915.9,600.8c0,0,6.7-0.1,4.4-7.2"/>
	<path class="st5" d="M921.1,611.3c0,0,10.8,2,10.6-5.7"/>
	<circle class="st6" cx="907.3" cy="612.2" r="15.3"/>
	<circle cx="903.1" cy="613.3" r="7.6"/>
	<g>
		<g>
			<path class="st11" d="M807.5,588.2c12.7-11.2,39.2-27.5,51.7-8c1.7,2.7,6.1,0.2,4.3-2.5c-14.6-22.9-44.2-6.5-59.5,7
				C801.6,586.8,805.1,590.3,807.5,588.2L807.5,588.2z"/>
		</g>
	</g>
	<g>
		<g>
			<path class="st11" d="M947.7,588.9c-15.3-13.5-44.9-29.9-59.5-7c-1.7,2.7,2.6,5.2,4.3,2.5c12.5-19.5,39-3.1,51.7,8
				C946.6,594.6,950.1,591,947.7,588.9L947.7,588.9z"/>
		</g>
	</g>
	<path class="st11" d="M921.1,500.8l-23.6,44.6c-3.5,6.6-9.9,11.2-17.3,12.3c-12.9,2-42.1-22.4-53.8-8.5c-12,14.3-33,13.8-31.5,6.6
		c3.7-17.9,14.3-49.4,14.3-49.4s46.6-29.3,66.9-20.3S921.1,500.8,921.1,500.8z"/>
	<path class="st11" d="M921.1,500.8c0,0-19.5,52.2-9,56c10.5,3.8,21.7-9,30.4,0s8.7,9,8.7,9s15.1,26.3,32.7,20.7
		c17.6-5.6-11.7-68-11.7-68L921.1,500.8z"/>
	<polygon class="st12" points="899.9,858.6 822.3,852.7 840.9,745.8 898.3,751.3 	"/>
	<path class="st13" d="M936.9,614.1"/>
	<path class="st14" d="M968,895.4c-1.8,1.2-9.2,2.1-8.1,12H773c1-14.2,2-10,0-15c0,0-6-10.2-22,15h-79.1
		c1.4-1.7,32.1-66.4,35.3-72.8c7.2-14.5,31.7-23.2,108.4-26.8c0,0,32.1,28.6,98.7,7.1c0,0,99.9-1.2,117.7,33.3
		c7.9,15.3,26.2,35.9,43.1,59.1h-90C974.7,895.8,972.1,892.7,968,895.4z"/>
	<path class="st13" d="M442,707.4c0,0,15,10,31,7s33.5-4.5,36.5-11.5"/>
	<path class="st13" d="M435,697.4c0,0-10-2-10,5"/>
</g>
</svg>
