<svg xmlns="http://www.w3.org/2000/svg" width="90" height="90" viewBox="0 0 90 90">
  <defs>
    <style>
      .cls-1 {
        fill: #ef148c;
      }
    </style>
  </defs>
  <g id="Layer_6" data-name="Layer 6">
    <g>
      <path class="cls-1" d="M48.15,33.81a21.52,21.52,0,0,1-6.33,14.38l-.62.59A21.6,21.6,0,1,1,42.13,18l.3.31A21.52,21.52,0,0,1,48.15,33.81Z"/>
      <path class="cls-1" d="M80.89,33.74a21.49,21.49,0,0,1-7,15l-.73.65A21.56,21.56,0,0,1,44.09,17.61l.62-.59A21.63,21.63,0,0,1,53,12.25,21.61,21.61,0,0,1,80.89,33.74Z"/>
      <path class="cls-1" d="M74.85,48.11l-2.56,2.67L50.58,75.88a9.21,9.21,0,0,1-13,.31l-24.25-26a6.54,6.54,0,0,1-.57-.61A9.2,9.2,0,0,1,13,37.21L35.36,13.82A21.85,21.85,0,0,1,43.18,19l.62-.59a21.71,21.71,0,0,1,8.26-4.78L74.54,35.12A9.22,9.22,0,0,1,74.85,48.11Z"/>
    </g>
  </g>
</svg>
