<svg xmlns="http://www.w3.org/2000/svg" xmlns:xlink="http://www.w3.org/1999/xlink" width="433" height="121.41" viewBox="0 0 433 121.41">
  <defs>
    <style>
      .cls-1, .cls-2 {
        stroke-miterlimit: 10;
      }

      .cls-1 {
        stroke-width: 4px;
        fill: url(#linear-gradient);
        stroke: url(#linear-gradient-2);
      }

      .cls-2 {
        fill: #2b2b2b;
        stroke: #010202;
      }
    </style>
    <linearGradient id="linear-gradient" x1="216.5" y1="119.41" x2="216.5" y2="2" gradientUnits="userSpaceOnUse">
      <stop offset="0" stop-color="#f8e82f"/>
      <stop offset="1" stop-color="#f29313"/>
    </linearGradient>
    <linearGradient id="linear-gradient-2" x1="216.5" y1="121.41" x2="216.5" gradientUnits="userSpaceOnUse">
      <stop offset="0" stop-color="#f29313"/>
      <stop offset="1" stop-color="#f29313"/>
    </linearGradient>
  </defs>
  <g id="Layer_6" data-name="Layer 6">
    <rect class="cls-1" x="2" y="2" width="429" height="117.41" rx="40"/>
    <g>
      <path class="cls-2" d="M169.24,47.87c0,7.23-26.58,23.08-38.21,25.77,0,1.87.17,5.44.17,8,0,1.3.16,2.52-.49,2.52-1.38,0-4.8-2.36-5.37-4.31-.89-2.92-1.38-12.43-1.38-21.29,0-9.43.49-18.29,1.71-18.54A100.8,100.8,0,0,1,145.18,38c18,0,23.49,4.39,24,9.19C169.16,47.46,169.24,47.71,169.24,47.87Zm-25.61-5c-3.9,0-8.29.16-13.08.57,0,0-.25,5.85-.25,12.27,0,4.55.57,9.43.57,12.6,4.72-1.06,32.76-18,32.76-22.43C163.63,44.05,152.9,42.83,143.63,42.83Z"/>
      <path class="cls-2" d="M197.77,71.2C195.9,73.47,185,83.31,181.51,83.31c-1.38,0-3.25-.9-5.69-2.85-.73-.73-1.3-13.41-1.3-24.87,0-7.31.24-14.14.81-17.07a1.61,1.61,0,0,1,1.71-1.3,4.16,4.16,0,0,1,3.5,2.28c1.38,2.84-.49,25.28,1.86,35.92,5.61-3.09,11.95-7,13-7a2.76,2.76,0,0,1,2.68,1.79A1.59,1.59,0,0,1,197.77,71.2Z"/>
      <path class="cls-2" d="M237.27,88.27c-.57,0-1-.08-1.22-.49-.89-1.06-3.66-15.85-5.12-20-7.32,2.2-20.65,4.15-20.65,4.15-1.87,3.17-3.9,11-4.47,11.7a2.3,2.3,0,0,1-1.38.25c-1.54,0-3.25-.49-3.25-2.52,0-8,17.15-41.29,18.45-42a14.08,14.08,0,0,1,6.5-1.78c1.22,0,2.2.32,2.44.81,4.31,8.45,12.76,41.45,12.76,47.06,0,.41,0,.65-.08.73A5.56,5.56,0,0,1,237.27,88.27ZM223.53,44.21c-1,.08-8.21,14.39-11.7,23.49,10.81-4.31,17.72-4.79,17.72-4.79S224.1,44.13,223.53,44.21Z"/>
      <path class="cls-2" d="M265.31,65.83c-.4.57-.57,2.44-.57,4.64,0,3,.25,6.82.25,9.51,0,2.92-.16,3.73-1.22,3.73-1.55,0-4.23-2-5.2-2.76-.74-.49-.9-6-.9-10.57,0-3.49.08-6.5.08-6.5-2.35-2.52-17.63-22.51-17.47-24.06.16-.73,1.05-1,2-1,1.38,0,2.93.48,3.41,1.21,2.36,3.82,11.87,19.19,13.58,19.19,1.3,0,7.88-20,11.13-23.25a4.79,4.79,0,0,1,3.26-1.46c1.3,0,2.43.73,2.43,1.79C276.12,39.42,267.75,62.34,265.31,65.83Z"/>
    </g>
  </g>
</svg>
