<svg xmlns="http://www.w3.org/2000/svg" width="90" height="90" viewBox="0 0 90 90">
  <defs>
    <style>
      .cls-1 {
        fill: #c48b5c;
      }

      .cls-2 {
        fill: #f5d8bc;
      }

      .cls-3 {
        fill: none;
        stroke: #000;
        stroke-miterlimit: 10;
        stroke-width: 2px;
      }

      .cls-4 {
        fill: #f2eff6;
      }
    </style>
  </defs>
  <g id="artboard_2" data-name="artboard 2">
    <g>
      <path class="cls-1" d="M58.2,9s-16.43-17.8-39.34,7S11,68.36,11,68.36s2,3-4.84,5C3.44,74.15,65.76,96,78.55,83.25c0,0-5.59-4.47.74-12.29,4.8-5.92,7-19.66,1.21-43.67S58.2,9,58.2,9Z"/>
      <path class="cls-2" d="M26.64,47a7.4,7.4,0,0,1-9,5.37c-4-1-7.65-7.63-6.65-11.59S17.3,37,21.26,38A7.41,7.41,0,0,1,26.64,47Z"/>
      <path class="cls-2" d="M67,47.8a7.4,7.4,0,0,0,9.17,5c3.92-1.14,7.36-7.91,6.22-11.84S76,37.49,72,38.63A7.39,7.39,0,0,0,67,47.8Z"/>
      <path class="cls-2" d="M74.44,46.16c-.69,10.73-9.83,21.07-17.93,28.21a16.4,16.4,0,0,1-23.57-2c-6.58-8.06-13.55-19.23-12.87-29.76C21.33,23.09,34.53,8,49.55,9S75.71,26.62,74.44,46.16Z"/>
      <path class="cls-3" d="M47,45.17s-.85,4.26-3,4.6a1.28,1.28,0,0,0-.7.34c-.31.31-.57.86.05,1.64a1.84,1.84,0,0,0,2.14.82"/>
      <path class="cls-3" d="M34.41,58.3S39.25,65,46,65.56c3.29.28,6.78-3.23,10.87-5.24"/>
      <path class="cls-3" d="M34.12,35.63s-2.74.17-2.69-1.73"/>
      <path class="cls-3" d="M35,34.58s-1.67,0-1.11-1.79"/>
      <path class="cls-3" d="M33.68,37.17s-2.67.49-2.62-1.4"/>
      <circle class="cls-4" cx="37.4" cy="37.2" r="3.78"/>
      <circle cx="38.63" cy="38.64" r="1.89"/>
      <path class="cls-3" d="M57.06,36.39s2.74.17,2.69-1.73"/>
      <path class="cls-3" d="M56.23,35.33s1.66,0,1.1-1.79"/>
      <path class="cls-3" d="M57.51,37.93s2.67.49,2.61-1.41"/>
      <circle class="cls-4" cx="54.09" cy="38.15" r="3.78"/>
      <circle cx="54.26" cy="40.04" r="1.89"/>
      <path class="cls-1" d="M29.8,32.65c2.88-2.52,8.91-6.42,11.82-2.12.9,1.33,3.06.08,2.16-1.26-4-6-11.5-2.1-15.74,1.61-1.22,1.06.56,2.82,1.76,1.77Z"/>
      <path class="cls-1" d="M64.54,31.94c-4.24-3.71-11.7-7.59-15.74-1.61-.9,1.33,1.26,2.59,2.16,1.26,2.91-4.31,8.94-.4,11.81,2.11,1.21,1.06,3-.7,1.77-1.76Z"/>
      <path class="cls-1" d="M57.51,10.54,51.67,21.6a5.84,5.84,0,0,1-4.29,3c-3.21.5-10.45-5.54-13.34-2.11S25.85,26,26.23,24.18c.92-4.43,3.53-12.25,3.53-12.25s11.54-7.26,16.57-5A70.78,70.78,0,0,0,57.51,10.54Z"/>
      <path class="cls-1" d="M57.51,10.54s-4.85,12.93-2.24,13.87,5.38-2.24,7.53,0L65,26.64s3.76,6.52,8.12,5.12-2.9-16.85-2.9-16.85Z"/>
    </g>
  </g>
</svg>
