<svg xmlns="http://www.w3.org/2000/svg" width="1920" height="1080" viewBox="0 0 1920 1080">
  <defs>
    <style>
      .cls-1 {
        fill: #a3a191;
      }

      .cls-2 {
        fill: #918979;
      }

      .cls-3 {
        fill: #6b655b;
      }

      .cls-4 {
        fill: #514f4c;
      }

      .cls-5, .cls-7 {
        fill: #efe267;
      }

      .cls-5 {
        opacity: 0.2;
      }

      .cls-6, .cls-9 {
        fill: #3f3e32;
      }

      .cls-6 {
        stroke: #3f3e32;
      }

      .cls-18, .cls-19, .cls-20, .cls-21, .cls-27, .cls-32, .cls-38, .cls-6 {
        stroke-miterlimit: 10;
      }

      .cls-21, .cls-8 {
        fill: #095614;
      }

      .cls-10 {
        fill: #fcfcfc;
        opacity: 0.4;
      }

      .cls-11 {
        fill: #2b2a23;
      }

      .cls-12 {
        fill: #494236;
      }

      .cls-13, .cls-24 {
        fill: #f9b03c;
      }

      .cls-14, .cls-15, .cls-16 {
        fill: #f9f9f7;
      }

      .cls-14 {
        opacity: 0.51;
      }

      .cls-16 {
        opacity: 0.62;
      }

      .cls-17, .cls-19 {
        fill: #020202;
      }

      .cls-18 {
        fill: #f4eed7;
      }

      .cls-18, .cls-19, .cls-20 {
        stroke: #7f2311;
      }

      .cls-18, .cls-19, .cls-20, .cls-21 {
        stroke-width: 2.5px;
      }

      .cls-21 {
        stroke: #095614;
      }

      .cls-22 {
        fill: #7f2311;
      }

      .cls-23 {
        fill: #f4dab0;
      }

      .cls-24 {
        opacity: 0.63;
      }

      .cls-25 {
        fill: #eaccb2;
      }

      .cls-26 {
        fill: #342614;
      }

      .cls-27, .cls-32, .cls-38 {
        fill: none;
      }

      .cls-27 {
        stroke: #000;
        stroke-width: 2px;
      }

      .cls-28 {
        fill: #f2eff6;
      }

      .cls-29 {
        fill: #e8c5aa;
      }

      .cls-30 {
        fill: #3b2a56;
      }

      .cls-31 {
        fill: #332615;
      }

      .cls-32 {
        stroke: #010202;
      }

      .cls-33 {
        fill: #5c412b;
      }

      .cls-34 {
        fill: #f5d8bc;
      }

      .cls-35 {
        fill: #1d1c30;
      }

      .cls-36 {
        fill: #472fce;
      }

      .cls-37 {
        fill: #ac3cbc;
      }

      .cls-38 {
        stroke: #21202b;
      }
    </style>
  </defs>
  <g id="Layer_2" data-name="Layer 2">
    <rect class="cls-1" x="1" width="1920" height="845"/>
    <rect class="cls-2" x="0.5" y="233.5" width="1920" height="611"/>
  </g>
  <g id="Layer_5" data-name="Layer 5">
    <rect class="cls-3" x="0.5" y="233.5" width="1920" height="34"/>
    <g>
      <rect class="cls-3" x="25.5" y="264.5" width="3" height="580"/>
      <rect class="cls-3" x="54.5" y="266.5" width="3" height="580"/>
      <rect class="cls-3" x="82.5" y="265.5" width="3" height="580"/>
      <rect class="cls-3" x="111.5" y="266.5" width="3" height="580"/>
      <rect class="cls-3" x="144.5" y="266.5" width="3" height="580"/>
      <rect class="cls-3" x="177.5" y="266.5" width="3" height="580"/>
      <rect class="cls-3" x="209.5" y="266.5" width="3" height="580"/>
      <rect class="cls-3" x="243.5" y="266.5" width="3" height="580"/>
      <rect class="cls-3" x="273.5" y="267.5" width="3" height="580"/>
      <rect class="cls-3" x="307.5" y="266.5" width="3" height="580"/>
      <rect class="cls-3" x="335.5" y="269.5" width="3" height="580"/>
      <rect class="cls-3" x="367.5" y="270.5" width="3" height="580"/>
      <rect class="cls-3" x="399.5" y="267.5" width="3" height="580"/>
      <rect class="cls-3" x="434.5" y="265.5" width="3" height="580"/>
      <rect class="cls-3" x="467.5" y="265.5" width="3" height="580"/>
      <rect class="cls-3" x="503.5" y="266.5" width="3" height="580"/>
      <rect class="cls-3" x="540.5" y="266.5" width="3" height="580"/>
      <rect class="cls-3" x="576.5" y="266.5" width="3" height="580"/>
      <rect class="cls-3" x="609.5" y="266.5" width="3" height="580"/>
      <rect class="cls-3" x="646.5" y="264.5" width="3" height="580"/>
      <rect class="cls-3" x="682.5" y="265.5" width="3" height="580"/>
      <rect class="cls-3" x="721.5" y="265.5" width="3" height="580"/>
      <rect class="cls-3" x="756.5" y="265.5" width="3" height="580"/>
      <rect class="cls-3" x="794.5" y="265.5" width="3" height="580"/>
      <rect class="cls-3" x="829.5" y="265.5" width="3" height="580"/>
      <rect class="cls-3" x="868.5" y="265.5" width="3" height="580"/>
      <rect class="cls-3" x="907.5" y="265.5" width="3" height="580"/>
      <rect class="cls-3" x="944.5" y="265.5" width="3" height="580"/>
      <rect class="cls-3" x="979.5" y="265.5" width="3" height="580"/>
      <rect class="cls-3" x="1016.5" y="265.5" width="3" height="580"/>
      <rect class="cls-3" x="1055.5" y="265.5" width="3" height="580"/>
      <rect class="cls-3" x="1098.5" y="265.5" width="3" height="580"/>
      <rect class="cls-3" x="1135.5" y="265.5" width="3" height="580"/>
      <rect class="cls-3" x="1166.5" y="265.5" width="3" height="580"/>
      <rect class="cls-3" x="1198.5" y="266.5" width="3" height="580"/>
      <rect class="cls-3" x="1234.5" y="264.5" width="3" height="580"/>
      <rect class="cls-3" x="1268.5" y="264.5" width="3" height="580"/>
      <rect class="cls-3" x="1301.5" y="266.5" width="3" height="580"/>
      <rect class="cls-3" x="1336.5" y="265.5" width="3" height="580"/>
      <rect class="cls-3" x="1369.5" y="265.5" width="3" height="580"/>
      <rect class="cls-3" x="1401.5" y="266.5" width="3" height="580"/>
      <rect class="cls-3" x="1433.5" y="267.5" width="3" height="580"/>
      <rect class="cls-3" x="1466.5" y="266.5" width="3" height="580"/>
      <rect class="cls-3" x="1502.5" y="266.5" width="3" height="580"/>
      <rect class="cls-3" x="1538.5" y="266.5" width="3" height="580"/>
      <rect class="cls-3" x="1577.5" y="266.5" width="3" height="580"/>
      <rect class="cls-3" x="1613.5" y="265.5" width="3" height="580"/>
      <rect class="cls-3" x="1656.5" y="265.5" width="3" height="580"/>
      <rect class="cls-3" x="1694.5" y="264.5" width="3" height="580"/>
      <rect class="cls-3" x="1729.5" y="265.5" width="3" height="580"/>
      <rect class="cls-3" x="1764.5" y="265.5" width="3" height="580"/>
      <rect class="cls-3" x="1800.5" y="265.5" width="3" height="580"/>
      <rect class="cls-3" x="1833.5" y="265.5" width="3" height="580"/>
      <rect class="cls-3" x="1865.5" y="266.5" width="3" height="580"/>
      <rect class="cls-3" x="1894.5" y="269.5" width="3" height="580"/>
    </g>
    <rect class="cls-4" x="0.5" y="844.5" width="1920" height="238"/>
    <polygon class="cls-5" points="1478.19 238.15 1342.74 456.24 1761.47 463.64 1615.37 225.5 1478.19 238.15"/>
    <polygon class="cls-5" points="1006.59 238.14 871.22 456.1 1289.71 463.5 1143.69 225.5 1006.59 238.14"/>
    <rect class="cls-6" x="1546.01" y="1.75" width="2.83" height="130.12"/>
    <ellipse class="cls-7" cx="1076.94" cy="235.68" rx="27.28" ry="26.21"/>
    <g>
      <polygon class="cls-8" points="1078.98 232.78 1168.88 232.07 1103.5 147.45 1079.22 147.45 1077.54 147.45 1053.26 147.45 987.88 232.07 1077.78 232.78 1077.78 232.79 1078.38 232.78 1078.98 232.79 1078.98 232.78"/>
      <path class="cls-8" d="M1079,237.78l78.56-.62,11.34-.09c4.74,0,6.07-5.27,3.54-8.54l-31.78-41.12-22.58-29.22c-3.47-4.5-6.77-10.31-11-14.19-2.72-2.51-8-1.55-11.4-1.55h-16c-8.52,0-17.11-.36-25.62,0-5.36.23-8.49,6.85-11.44,10.67l-20.42,26.43-37.85,49c-2.53,3.27-1.18,8.5,3.53,8.54l78.56.62,11.35.09-5-5h0a5.07,5.07,0,0,0,5,5h1.2a5.07,5.07,0,0,0,5-5h0c0-6.44-10-6.45-10,0h0l5-5h-1.2l5,5h0a5.08,5.08,0,0,0-5-5l-78.56-.62-11.35-.09,3.54,8.53,57.25-74.08L1056.8,151l-3.54,1.46h50.24L1100,151l57.25,74.08,8.14,10.53,3.53-8.53-78.55.62-11.35.09C1072.55,227.83,1072.53,237.83,1079,237.78Z"/>
    </g>
    <g>
      <polygon class="cls-9" points="1095.83 145.5 1061.43 145.5 1064.91 127.5 1092.35 127.5 1095.83 145.5"/>
      <path class="cls-9" d="M1095.83,140.5h-34.4l4.82,6.33,3.48-18-4.82,3.67h27.44l-4.82-3.67,3.48,18c1.22,6.31,10.86,3.64,9.64-2.66l-3.48-18a5,5,0,0,0-4.82-3.67h-27.44a5.05,5.05,0,0,0-4.82,3.67l-3.48,18c-.61,3.15,1.37,6.33,4.82,6.33h34.4C1102.27,150.5,1102.28,140.5,1095.83,140.5Z"/>
    </g>
    <rect class="cls-6" x="1076.38" y="-0.41" width="2.83" height="130.12"/>
    <path class="cls-10" d="M1035.65,186.38c-9.52,14.4-28.35,35.47-24,38.33s22.71-14.58,32.23-29,20.08-33.29,15.76-36.14S1045.16,172,1035.65,186.38Z"/>
    <rect class="cls-11" x="836" y="454" width="1085" height="28"/>
    <rect class="cls-12" x="868" y="482" width="1053" height="467.5"/>
    <ellipse class="cls-7" cx="1545.93" cy="235.96" rx="27.28" ry="26.21"/>
    <g>
      <polygon class="cls-8" points="1547.97 233.06 1637.88 232.35 1572.49 147.73 1548.21 147.73 1546.53 147.73 1522.25 147.73 1456.87 232.35 1546.77 233.06 1546.77 233.07 1547.37 233.06 1547.97 233.07 1547.97 233.06"/>
      <path class="cls-8" d="M1548,238.06l78.56-.62,11.35-.09c4.74,0,6.06-5.27,3.53-8.54l-31.77-41.12-22.58-29.22c-3.48-4.5-6.77-10.31-11-14.19-2.72-2.51-8-1.55-11.4-1.55h-16c-8.52,0-17.11-.36-25.63,0-5.35.23-8.48,6.85-11.44,10.67l-20.42,26.43-37.85,49c-2.52,3.27-1.18,8.5,3.54,8.54l78.56.62,11.34.09-5-5h0a5.08,5.08,0,0,0,5,5h1.2a5.07,5.07,0,0,0,5-5h0c0-6.44-10-6.45-10,0h0l5-5h-1.2l5,5h0a5.07,5.07,0,0,0-5-5l-78.56-.62-11.34-.09,3.53,8.53,57.25-74.08,8.14-10.53-3.54,1.46h50.24l-3.53-1.46,57.25,74.08,8.13,10.53,3.54-8.53-78.56.62-11.35.09C1541.54,228.11,1541.53,238.11,1548,238.06Z"/>
    </g>
    <g>
      <polygon class="cls-9" points="1564.83 145.78 1530.43 145.78 1533.9 127.78 1561.35 127.78 1564.83 145.78"/>
      <path class="cls-9" d="M1564.83,140.78h-34.4l4.82,6.33,3.48-18-4.83,3.67h27.45l-4.82-3.67,3.47,18c1.22,6.31,10.86,3.64,9.65-2.66l-3.48-18a5,5,0,0,0-4.82-3.67H1533.9a5.06,5.06,0,0,0-4.82,3.67l-3.47,18c-.61,3.15,1.37,6.33,4.82,6.33h34.4C1571.26,150.78,1571.27,140.78,1564.83,140.78Z"/>
    </g>
    <path class="cls-10" d="M1504.64,186.66c-9.52,14.4-28.35,35.47-24,38.32s22.71-14.57,32.23-29,20.08-33.28,15.76-36.13S1514.16,172.27,1504.64,186.66Z"/>
    <g>
      <g>
        <path class="cls-13" d="M1357.93,372.39c0-3.39-11.86-6.13-26.49-6.13S1305,369,1305,372.39l7,87.11h0s0,0,0,.07c0,1.91,9.07,3.47,20.26,3.47s20.26-1.56,20.26-3.47c0,0,0-.05,0-.07h0Z"/>
        <path class="cls-14" d="M1365.5,351.7c0-4.34-15.22-7.86-34-7.86s-34,3.52-34,7.86l9,111.8h0s0,.06,0,.09c0,2.45,11.64,4.45,26,4.45s26-2,26-4.45c0,0,0-.06,0-.09h0Z"/>
        <path class="cls-15" d="M1331.87,357.08c-14.92,0-27,3.72-27,8.31l-.37,8.05c0,4.6,12.09,8.32,27,8.32s27-3.72,27-8.32l.37-8.05C1358.87,360.8,1346.78,357.08,1331.87,357.08Z"/>
      </g>
      <path class="cls-16" d="M1322.42,403.61c-.51,10.13-2.43,27.84.35,37.8,3.39,12.17,6.79,13.56,0,14-2.74.19-4.64-23-6.41-47.92s-1.33-43.76,1.41-44S1323.66,378.69,1322.42,403.61Z"/>
    </g>
    <g>
      <path class="cls-17" d="M241.55,336.32a104.43,104.43,0,0,1-73.65-30.27l-1.05,1.08,1.05-1.08a104.91,104.91,0,0,1-23-34.08l-1.4.6,1.4-.6A104.84,104.84,0,0,1,167.7,157.25l.66-.65-1.7-1.72,1.7,1.72a104.91,104.91,0,0,1,35-22.91h0A104.46,104.46,0,0,1,242,126.34V104.5a127.5,127.5,0,0,0,0,255V336.31Z"/>
      <path class="cls-17" d="M242,104.5v21.84a104.46,104.46,0,0,1,38.61,7.35h0a105.1,105.1,0,0,1,57.7,56.14l.43-.18-.43.18a105,105,0,0,1,.05,82.44L340,273l-1.62-.68a105.91,105.91,0,0,1-96.36,64V359.5a127.5,127.5,0,0,0,0-255Z"/>
      <path class="cls-18" d="M145.41,271.75l-.53.22a104.91,104.91,0,0,0,23,34.08l.44-.45A104.91,104.91,0,0,1,145.41,271.75Z"/>
      <path class="cls-18" d="M200.72,327.42l-.18.43.18-.43a105,105,0,0,1-32.38-21.82l-.44.45a104.43,104.43,0,0,0,73.65,30.27H242v-.44A104.36,104.36,0,0,1,200.72,327.42Z"/>
      <path class="cls-18" d="M137.24,231.11a104.54,104.54,0,0,1,8.12-40.53l-.1,0,.1,0a105.15,105.15,0,0,1,22.34-33.33A104.84,104.84,0,0,0,144.88,272l.53-.22A104.53,104.53,0,0,1,137.24,231.11Z"/>
      <path class="cls-18" d="M282.45,327.78h0a104.34,104.34,0,0,1-40.45,8.1v.44a104.4,104.4,0,0,0,73.85-30.9,104.68,104.68,0,0,1-33.4,22.36Z"/>
      <path class="cls-19" d="M280.39,134.23l.22-.54A104.46,104.46,0,0,0,242,126.34v.46A104.21,104.21,0,0,1,280.39,134.23Z"/>
      <path class="cls-19" d="M313.63,155.53l.44-.45-.44.45a104.93,104.93,0,0,1,24.14,34.53l.54-.23a105.1,105.1,0,0,0-57.7-56.14l-.22.54A104.72,104.72,0,0,1,313.63,155.53Z"/>
      <path class="cls-19" d="M203.49,133.93l-.1-.24a104.91,104.91,0,0,0-35,22.91h0A104.86,104.86,0,0,1,203.49,133.93Z"/>
      <path class="cls-19" d="M346.31,231.11h.45a104.36,104.36,0,0,0-8.45-41.28l-.54.23A104.38,104.38,0,0,1,346.31,231.11Z"/>
      <path class="cls-19" d="M168.36,156.6l-.66.65.67-.65Z"/>
      <path class="cls-19" d="M346.32,231.55a104.44,104.44,0,0,1-8.17,40.63l.21.09a104.34,104.34,0,0,0,8.4-41.16h-.45C346.31,231.26,346.32,231.41,346.32,231.55Z"/>
      <path class="cls-19" d="M315.89,305.37h0l0,0a104.75,104.75,0,0,0,22.51-33.14l-.21-.09A104.93,104.93,0,0,1,315.89,305.37Z"/>
      <path class="cls-19" d="M203.49,133.93a104.34,104.34,0,0,1,38.06-7.14H242v-.46a104.46,104.46,0,0,0-38.61,7.35Z"/>
      <path class="cls-18" d="M241.79,299.79a67.21,67.21,0,0,1-27.3-5.77l-13.77,33.4A104.36,104.36,0,0,0,242,335.87V299.78Z"/>
      <path class="cls-20" d="M242,335.87a104.34,104.34,0,0,0,40.45-8.1l-13.69-33.6A67.26,67.26,0,0,1,242,299.78Z"/>
      <path class="cls-20" d="M193.58,279.52,168.34,305.6a105,105,0,0,0,32.38,21.82L214.49,294A67.63,67.63,0,0,1,193.58,279.52Z"/>
      <path class="cls-20" d="M174.27,232.27c0-.39,0-.77,0-1.16H137.24a104.53,104.53,0,0,0,8.17,40.64l33.73-14.32A67.26,67.26,0,0,1,174.27,232.27Z"/>
      <path class="cls-18" d="M309.32,232.27a67.39,67.39,0,0,1-5,25.58l33.86,14.33a104.44,104.44,0,0,0,8.17-40.63c0-.14,0-.29,0-.44h-37C309.29,231.5,309.32,231.88,309.32,232.27Z"/>
      <path class="cls-18" d="M179.93,205.21l-34.57-14.63a104.54,104.54,0,0,0-8.12,40.53H174.3A67.36,67.36,0,0,1,179.93,205.21Z"/>
      <path class="cls-18" d="M179.14,257.43l-33.73,14.32a104.91,104.91,0,0,0,22.93,33.85l25.24-26.08A67.48,67.48,0,0,1,179.14,257.43Z"/>
      <path class="cls-20" d="M290.13,279.39l25.76,26a104.93,104.93,0,0,0,22.26-33.19l-33.86-14.33A67.63,67.63,0,0,1,290.13,279.39Z"/>
      <path class="cls-20" d="M179.93,205.21a67.43,67.43,0,0,1,15.15-21.67L168.37,156.6l-.67.65a105.15,105.15,0,0,0-22.34,33.33Z"/>
      <path class="cls-18" d="M303.41,204.65l34.36-14.59a104.93,104.93,0,0,0-24.14-34.53l-26.16,27A67.72,67.72,0,0,1,303.41,204.65Z"/>
      <path class="cls-20" d="M287.47,182.55l26.16-27a104.72,104.72,0,0,0-33.24-21.3l-14.43,35A67.36,67.36,0,0,1,287.47,182.55Z"/>
      <path class="cls-18" d="M266,169.22l14.43-35A104.21,104.21,0,0,0,242,126.8v38A67.1,67.1,0,0,1,266,169.22Z"/>
      <path class="cls-20" d="M241.79,164.74H242V126.8h-.45a104.34,104.34,0,0,0-38.06,7.14l14.34,35.21A67.32,67.32,0,0,1,241.79,164.74Z"/>
      <path class="cls-18" d="M290.13,279.39a67.53,67.53,0,0,1-21.37,14.78l13.69,33.6a104.68,104.68,0,0,0,33.4-22.36l0,0Z"/>
      <path class="cls-20" d="M309.29,231.11h37a104.38,104.38,0,0,0-8.54-41.05l-34.36,14.59A67.34,67.34,0,0,1,309.29,231.11Z"/>
      <path class="cls-18" d="M195.08,183.54a67.49,67.49,0,0,1,22.75-14.4l-14.34-35.21a104.86,104.86,0,0,0-35.12,22.67Z"/>
      <polygon class="cls-18" points="242 230.73 242.78 230.4 242.3 229.21 242 229.51 242 230.73"/>
      <polygon class="cls-18" points="241.91 230.77 241.11 231.11 241.11 231.11 242 231.11 242 230.86 241.91 230.77"/>
      <polygon class="cls-18" points="242.3 229.21 242 228.47 242 229.51 242.3 229.21"/>
      <polygon class="cls-18" points="242 231.11 242.25 231.11 242 230.86 242 231.11"/>
      <polygon class="cls-18" points="242 230.86 242.25 231.11 243.07 231.11 242.78 230.4 242 230.73 242 230.86"/>
      <polygon class="cls-18" points="240.65 230.91 240.54 230.87 240.44 231.11 240.46 231.11 240.65 230.91"/>
      <polygon class="cls-18" points="242 229.51 242 228.47 241.76 227.89 240.97 229.82 241.34 230.19 242 229.51"/>
      <polygon class="cls-18" points="241.34 230.19 240.97 229.82 240.54 230.87 240.65 230.91 241.34 230.19"/>
      <polygon class="cls-18" points="243.65 232.52 243.48 232.11 243.07 231.94 243.65 232.52"/>
      <polygon class="cls-18" points="240.42 231.15 240.29 231.46 241.11 231.11 240.46 231.11 240.42 231.15"/>
      <polygon class="cls-18" points="242 227.31 241.76 227.89 242 228.47 242 227.31"/>
      <polygon class="cls-18" points="240.46 231.11 240.44 231.11 240.42 231.15 240.46 231.11"/>
      <polygon class="cls-18" points="240 231.58 240.29 231.46 240.42 231.15 240 231.58"/>
      <polygon class="cls-18" points="240.65 230.91 240.46 231.11 241.11 231.11 241.11 231.11 240.65 230.91"/>
      <polygon class="cls-18" points="242 230.86 242 230.73 241.91 230.77 242 230.86"/>
      <polygon class="cls-18" points="241.91 230.77 241.34 230.19 240.65 230.91 241.11 231.11 241.91 230.77"/>
      <polygon class="cls-18" points="242 230.73 242 229.51 241.34 230.19 241.91 230.77 242 230.73"/>
      <path class="cls-20" d="M179.14,257.43a67.48,67.48,0,0,0,14.44,22.09L240,231.58Z"/>
      <path class="cls-18" d="M242,228.47l.3.74,45.17-46.66A67.36,67.36,0,0,0,266,169.22l-24,58.09Z"/>
      <path class="cls-18" d="M242,227.31V164.75h-.21a67.32,67.32,0,0,0-24,4.4l23.93,58.75Z"/>
      <path class="cls-20" d="M241.76,227.89l-23.93-58.75a67.49,67.49,0,0,0-22.75,14.4L241,229.82Z"/>
      <path class="cls-20" d="M266,169.22a67.1,67.1,0,0,0-24-4.47v62.56Z"/>
      <path class="cls-18" d="M241,229.82l-45.89-46.28a67.43,67.43,0,0,0-15.15,21.67l60.61,25.66Z"/>
      <path class="cls-20" d="M240.44,231.11l.1-.24-60.61-25.66a67.36,67.36,0,0,0-5.63,25.9Z"/>
      <path class="cls-20" d="M268.76,294.17a67.53,67.53,0,0,0,21.37-14.78l-46.48-46.87Z"/>
      <path class="cls-18" d="M243.48,232.11l.17.41,46.48,46.87a67.63,67.63,0,0,0,14.16-21.54Z"/>
      <path class="cls-18" d="M243.07,231.94l-1.07-.45v68.29a67.26,67.26,0,0,0,26.76-5.61l-25.11-61.65Z"/>
      <path class="cls-20" d="M243.48,232.11l60.81,25.74a67.39,67.39,0,0,0,5-25.58c0-.39,0-.77,0-1.16H243.07Z"/>
      <polygon class="cls-18" points="242 231.11 242 231.49 243.07 231.94 242.25 231.11 242 231.11"/>
      <polygon class="cls-18" points="241.11 231.11 242 231.49 242 231.11 241.11 231.11"/>
      <path class="cls-20" d="M241.11,231.11l-.82.34L214.49,294a67.21,67.21,0,0,0,27.3,5.77H242V231.49l-.89-.38Z"/>
      <path class="cls-20" d="M242.78,230.4l60.63-25.75a67.72,67.72,0,0,0-15.94-22.1L242.3,229.21Z"/>
      <path class="cls-18" d="M240,231.58l-46.42,47.94A67.63,67.63,0,0,0,214.49,294l25.8-62.57Z"/>
      <path class="cls-18" d="M243.07,231.11h66.22a67.34,67.34,0,0,0-5.88-26.46L242.78,230.4Z"/>
      <polygon class="cls-18" points="242.25 231.11 243.07 231.94 243.48 232.11 243.07 231.11 242.25 231.11"/>
      <path class="cls-18" d="M240.42,231.14l0,0H174.3c0,.39,0,.77,0,1.16a67.26,67.26,0,0,0,4.87,25.16L240,231.58Z"/>
      <circle class="cls-21" cx="242" cy="232" r="12.48"/>
      <circle class="cls-22" cx="242.22" cy="231.78" r="6.02"/>
    </g>
    <path class="cls-13" d="M1037.61,387.1c0-2.85-11.87-5.16-26.5-5.16s-26.49,2.31-26.49,5.16l7,73.4h0s0,0,0,.06c0,1.61,9.07,2.92,20.26,2.92s20.26-1.31,20.26-2.92c0,0,0,0,0-.06h0Z"/>
    <path class="cls-14" d="M1045.17,352.15c0-4.35-15.22-7.86-34-7.86s-34,3.51-34,7.86l9,111.79h0s0,.06,0,.09c0,2.46,11.64,4.45,26,4.45s26-2,26-4.45c0,0,0-.06,0-.09h0Z"/>
    <path class="cls-15" d="M1011.54,369.52c-14.91,0-27,3.72-27,8.32l-.37,8.05c0,4.59,12.09,8.31,27,8.31s27-3.72,27-8.31l.37-8.05C1038.54,373.24,1026.45,369.52,1011.54,369.52Z"/>
    <path class="cls-16" d="M1002.09,404.05c-.51,10.14-2.43,27.84.35,37.81,3.39,12.16,6.79,13.55,0,14-2.74.2-4.64-23-6.41-47.92s-1.33-43.76,1.41-44S1003.33,379.14,1002.09,404.05Z"/>
    <g>
      <g>
        <ellipse class="cls-13" cx="1853.5" cy="460.5" rx="22" ry="3"/>
        <polygon class="cls-13" points="1875.5 460.5 1831.5 460.5 1830.5 442.5 1876.5 442.5 1875.5 460.5"/>
        <ellipse class="cls-23" cx="1853.5" cy="443.5" rx="23" ry="3"/>
      </g>
      <path class="cls-16" d="M1843.64,403c-.5,10.13-2.43,27.84.35,37.8,3.4,12.17,6.79,13.56,0,14-2.74.19-4.64-23-6.41-47.92s-1.33-43.76,1.41-44S1844.88,378.11,1843.64,403Z"/>
      <path class="cls-14" d="M1886.73,351.7c0-4.34-15.23-7.86-34-7.86s-34,3.52-34,7.86l9,111.8h0s0,.06,0,.09c0,2.45,11.64,4.45,26,4.45s26-2,26-4.45a.29.29,0,0,0,0-.09h0Z"/>
    </g>
    <path class="cls-16" d="M892,962.3c10.13.51,27.84,2.43,37.8-.35,12.17-3.39,13.56-6.79,14,0,.19,2.74-23,4.64-47.92,6.41s-43.76,1.33-44-1.41S867.11,961.06,892,962.3Z"/>
    <path class="cls-24" d="M942.79,973l-109.95,9.16s3.68,8.36-19.32,9.36-17,15.87-27,14.43-36-15.43-44-10.43c-4,2.5-17.39-5.57-18-11s11.52-8.23,18-8.16c8.07.1,25.68,2.37,28,1.8a18.79,18.79,0,0,1,4.67-.51c4.87.06,14.79-.76,16.3-8.2,2-9.93,31.09-7.64,32.77-5.7,3.25,3.77.25,3.77,5.13,5.7,8.07,3.19,9.61,1.25,19.1,1.07,6.52-.12,53.59-.43,81,0,6.25.1,15.77-3.08,14,1.88A1,1,0,0,1,942.79,973Z"/>
    <path class="cls-14" d="M840.7,919.22c-4.34,0-7.86,15.22-7.86,34s3.52,34,7.86,34l111.8-9h.09c2.45,0,4.45-11.64,4.45-26s-2-26-4.45-26h-.09Z"/>
  </g>
  <g id="artboard_2" data-name="artboard 2">
    <polygon class="cls-25" points="521.48 907.48 411.39 899.14 437.84 747.46 519.13 755.33 521.48 907.48"/>
    <path class="cls-25" d="M398.06,623.69A39.72,39.72,0,0,1,344.31,640C325,629.7,314.38,590.31,324.72,571s37.65-11.35,57-1A39.72,39.72,0,0,1,398.06,623.69Z"/>
    <path class="cls-25" d="M607.3,680.34a39.73,39.73,0,0,0,41.22,38.17c21.93-.84,48.64-31.66,47.8-53.58s-28.92-26.65-50.85-25.81A39.73,39.73,0,0,0,607.3,680.34Z"/>
    <path class="cls-25" d="M649.42,668.39c-17.56,55-78.6,97-130.07,123.67A88.1,88.1,0,0,1,399.08,751.2c-23.8-50.57-45.62-117.84-28.38-171.81C402.69,479.2,491,417.9,568,442.48S681.41,568.2,649.42,668.39Z"/>
    <path class="cls-26" d="M540.8,575.62s3.05,11,17.8,15.4c5.17,1.56,13.14.54,20.06.27,6.62-.25,15.15-1.75,20.37-1.55,15.65.59,23.6,6.72,23.6,6.72a41.79,41.79,0,0,0-23.15-16c-5.45-1.38-14.29-.68-21.25-.41-6,.23-13.29,1.92-17.89,1.89C542.15,581.78,540.8,575.62,540.8,575.62Z"/>
    <path class="cls-26" d="M517.26,545.42s-3.4,10.85-18.29,14.81c-5.21,1.39-13.15.11-20.06-.38-6.6-.47-15.08-2.24-20.3-2.22-15.67.08-23.81,6-23.81,6a41.77,41.77,0,0,1,23.66-15.28c5.5-1.19,14.3-.21,21.25.29,6,.42,13.22,2.35,17.82,2.47C515.71,551.53,517.26,545.42,517.26,545.42Z"/>
    <path class="cls-27" d="M517.52,594.61s-11.93,57.89-39,71.93a2.8,2.8,0,0,0,.66,5.24l15.87,3.53a52.28,52.28,0,0,1,7.26,2.18,31.91,31.91,0,0,0,25-.65l.38-.18"/>
    <path class="cls-27" d="M533.5,745s-67-31.82-95-28.32"/>
    <path class="cls-27" d="M462.75,735.54s13.23-1.47,34.19,10.83"/>
    <circle class="cls-28" cx="469.55" cy="591.9" r="20.3"/>
    <circle cx="475.34" cy="600.27" r="10.15"/>
    <path class="cls-29" d="M444.74,588.52a24.46,24.46,0,0,1,48.88-1.88Z"/>
    <circle class="cls-28" cx="568.89" cy="619.42" r="20.3"/>
    <circle cx="568.73" cy="629.6" r="10.15"/>
    <path class="cls-29" d="M550.67,602.24a24.46,24.46,0,0,1,40.86,26.9Z"/>
    <path class="cls-30" d="M619,1082.08l.3,1h-3.39l-.3-1H144.51c38.7-105.63,95.84-227.66,107.75-252.84a31.8,31.8,0,0,1,6-8.6c13.64-14,61.38-60.43,92.78-60.43,27.72,0,46.05,34.9,53.47,52.32a32,32,0,0,0,14.41,15.74c26.45,14.12,95.22,44.56,127.56-.14,40.52-56,70.31-48.86,87-45.28,15.46,3.31,34,57.78,36.63,65.76.2.62.38,1.23.55,1.85,3,11.48,35.34,133.47,62.64,231.62Z"/>
    <path class="cls-31" d="M642,464.59s10.07-3.83-6.29-41.12S551.27,389,532.13,396.67c0,0-57.73-16-94.19,10.37s-50,59.14-49.58,90.15S360,582.46,373.84,588.33s16.93.92,16.93.92S399.6,527,413.1,512.62c15.78-16.83,27.76-43.52,77-59.67,44.7-14.64,54.92,5,62.76,14.09,0,0,18.24-13.68,45,1.78,32.72,18.93,58.16,60,59.44,90.05s-20.52,87.66-12.57,90.79a29.94,29.94,0,0,0,16,1.28s40.5-86.31,38.88-108.34A146.46,146.46,0,0,0,710,518.78C716,500.49,681.26,448.27,642,464.59Z"/>
    <polygon points="312.42 972.33 269.82 1082.08 266.35 1082.08 309.4 971.15 312.42 972.33"/>
    <polygon points="619.28 1083.08 615.89 1083.08 615.59 1082.08 581.39 968.7 584.5 967.76 618.98 1082.08 619.28 1083.08"/>
    <path d="M676.91,207.74c-1.13,10.47-4.49,24.55-9.78,29.37-23.93,22-50.25,27.92-50.63,32.32-.21,2.31,2.27,2.95,5.63,3.25,5.24.46,13.35-.3,18,.1,2.31.21,3.95.77,3.84,2-.33,3.78-14.91,13.28-21.26,13.35-4.24,0-7.82-.06-10.76-.31-6.92-.62-12.91-2.2-12.4-8.08.84-7.11,9.94-19.2,12.93-21.9,7.36-6.75,55.36-28.31,56.37-39.85.76-8.6-10.23-18.24-27.22-19.74-13.22-1.17-30.64,2.16-51.32,13.65-1.78,1.11-5,1.47-7.3,1.26-2.09-.18-3.73-.75-3.62-2,0-.21.22-.19.47-.59,5.57-8,12.73-17.27,26.39-23.47,17.39-7.77,30.88-9.75,41.16-8.84,21.4,1.89,29.68,15.94,29.69,22.92A55.55,55.55,0,0,1,676.91,207.74ZM619.54,311.56c-.51,5.88-4.17,13.8-8.83,13.82l-.21,0c-3.35-.3-8.07-9.17-7.57-14.84.43-4.82,4.48-7.64,9.73-7.17,3.77.33,7.35,3,7,6.54C619.64,310.52,619.6,310.94,619.54,311.56Z"/>
    <path d="M495,240c2.06,7.14,3.62,17.21,1.46,21.77-9.74,20.72-25.32,31.6-24.4,34.58.48,1.56,2.27,1.32,4.54.61,3.54-1.09,8.62-3.75,11.74-4.72,1.56-.48,2.78-.55,3,.3.79,2.55-6.18,12.63-10.3,14.38q-4.12,1.74-7.1,2.66c-4.68,1.45-9,2-10.24-2-1.35-4.86,1.36-15.18,2.59-17.73,3-6.37,28.55-33.23,26.14-41-1.8-5.82-11.54-9.17-23-5.62-8.93,2.77-19.41,9.58-29.82,22.6a9.53,9.53,0,0,1-4.43,2.76c-1.42.44-2.64.51-2.9-.34-.05-.14.1-.19.15-.51,1.5-6.68,3.7-14.66,10.95-22.34,9.27-9.71,17.54-14.6,24.48-16.75,14.46-4.47,23.61,2.48,25.48,7A37.77,37.77,0,0,1,495,240Zm-9.72,83c1.23,4,1,10.12-2.07,11.36l-.14,0c-2.27.7-7.71-3.83-8.9-7.66-1-3.26.89-6.17,4.43-7.27,2.55-.79,5.59,0,6.33,2.39Z"/>
    <path d="M762.33,371.82c-2.05,6.18-5.9,14.26-9.72,16.49-17.3,10.19-34,10.36-34.78,13-.43,1.36,1,2.07,3,2.69,3.11,1,8.11,1.54,10.84,2.39,1.37.42,2.29,1,2.06,1.72-.69,2.24-10.73,6.09-14.58,5.31-2.56-.52-4.72-1-6.46-1.58-4.1-1.27-7.52-3-6.44-6.48,1.42-4.19,8.49-10.33,10.64-11.57,5.33-3.12,37.12-9.94,39.23-16.78,1.58-5.1-3.82-12.35-13.89-15.46-7.84-2.41-18.8-2.66-32.78,1.61a8.36,8.36,0,0,1-4.58-.18c-1.24-.39-2.16-.94-1.93-1.69,0-.12.16-.08.36-.29,4.4-4.1,9.93-8.79,19-10.77,11.51-2.44,19.92-1.89,26,0,12.69,3.91,15.87,13.47,15,17.69A34.6,34.6,0,0,1,762.33,371.82Zm-48.12,55.32c-1.07,3.49-4.31,7.8-7.12,7.21l-.12,0c-2-.62-3.69-6.59-2.66-9.95.88-2.86,3.7-4,6.81-3.08,2.24.69,4,2.75,3.4,4.87C714.41,426.52,714.33,426.77,714.21,427.14Z"/>
  </g>
  <g id="Layer_6" data-name="Layer 6">
    <path class="cls-32" d="M478.87,497.36s44.78-.76,57.69,18.22c0,0,3.79,5.31,9.86,3.79s29-10.41,62,11.59"/>
    <path class="cls-32" d="M456.11,511.46S515,510.69,532,529.9a14.68,14.68,0,0,0,13,3.85c8-1.54,42.94-8.46,76.89,15.37"/>
    <path class="cls-32" d="M437,581.94s-9.06-6.92-16-2"/>
    <path class="cls-32" d="M435.37,591a35.8,35.8,0,0,0-26,.92"/>
    <path class="cls-32" d="M435.46,597.46s-16.49-.16-20,11"/>
    <path class="cls-32" d="M600.73,628.81s10.84-3.54,15.79,3.42"/>
    <path class="cls-32" d="M599.25,637.89a35.82,35.82,0,0,1,24.24,9.45"/>
    <path class="cls-32" d="M597,644s15.62,5.29,15.26,16.94"/>
    <g>
      <path class="cls-33" d="M1735.38,249.54s-40.9-44.32-97.92,17.34-19.7,130.5-19.7,130.5,5,7.58-12,12.52c-6.63,1.92,148.49,56.23,180.33,24.57,0,0-13.9-11.12,1.86-30.6,11.93-14.74,17.46-48.94,3-108.71S1735.38,249.54,1735.38,249.54Z"/>
      <path class="cls-34" d="M1656.81,344.2a18.42,18.42,0,0,1-22.35,13.37c-9.86-2.47-19-19-16.56-28.87s15.67-9.33,25.53-6.85A18.41,18.41,0,0,1,1656.81,344.2Z"/>
      <path class="cls-34" d="M1757.28,346.21a18.42,18.42,0,0,0,22.83,12.54c9.77-2.83,18.33-19.69,15.49-29.46s-16-8.75-25.77-5.91A18.43,18.43,0,0,0,1757.28,346.21Z"/>
      <path class="cls-34" d="M1775.82,342.13c-1.73,26.72-24.48,52.45-44.64,70.22a40.84,40.84,0,0,1-58.68-4.89c-16.38-20.07-33.74-47.88-32-74.1,3.15-48.65,36-86.13,73.39-83.71S1779,293.48,1775.82,342.13Z"/>
      <path class="cls-27" d="M1707.46,339.67s-2.13,10.59-7.42,11.46a3.18,3.18,0,0,0-1.76.83c-.75.78-1.39,2.15.14,4.09,2.55,3.25,5.33,2,5.33,2"/>
      <path class="cls-27" d="M1676.17,372.35s12,16.67,28.74,18.08c8.21.69,16.89-8,27.06-13.05"/>
      <path class="cls-27" d="M1675.44,315.93s-6.82.42-6.69-4.31"/>
      <path class="cls-27" d="M1677.52,313.29s-4.14,0-2.74-4.45"/>
      <path class="cls-27" d="M1674.34,319.75s-6.64,1.23-6.51-3.49"/>
      <circle class="cls-28" cx="1683.6" cy="319.84" r="9.41"/>
      <circle cx="1686.67" cy="323.42" r="4.71"/>
      <path class="cls-27" d="M1732.56,317.81s6.82.42,6.69-4.3"/>
      <path class="cls-27" d="M1730.48,315.18s4.14,0,2.74-4.45"/>
      <path class="cls-27" d="M1733.66,321.64s6.65,1.23,6.51-3.5"/>
      <circle class="cls-28" cx="1725.16" cy="322.18" r="9.41"/>
      <circle cx="1725.58" cy="326.88" r="4.71"/>
      <path class="cls-33" d="M1664.26,308.06c7.4-6.5,23-16.38,30.38-5.15,1.76,2.68,6.1.18,4.32-2.52-9.61-14.6-28.13-4.74-38.23,4.13-2.43,2.13,1.12,5.65,3.53,3.54Z"/>
      <path class="cls-33" d="M1750.74,307.15c-10.1-8.86-28.62-18.73-38.23-4.13-1.77,2.7,2.55,5.21,4.32,2.53,7.39-11.24,23-1.35,30.38,5.14,2.41,2.11,6-1.41,3.53-3.54Z"/>
      <path class="cls-33" d="M1733.66,253.45,1719.14,281a14.65,14.65,0,0,1-10.7,7.61c-8,1.22-26-13.81-33.2-5.26-7.41,8.81-20.38,8.51-19.45,4.07,2.3-11,8.79-30.49,8.79-30.49s28.75-18.08,41.26-12.52S1733.66,253.45,1733.66,253.45Z"/>
      <path class="cls-33" d="M1733.66,253.45s-12.06,32.21-5.57,34.53,13.39-5.57,18.75,0l5.36,5.56s9.34,16.23,20.2,12.75-7.22-42-7.22-42Z"/>
      <polygon class="cls-34" points="1720.59 474.24 1672.7 470.61 1684.2 404.63 1719.57 408.05 1720.59 474.24"/>
      <path class="cls-34" d="M1530.46,552.88s17.67,21,14.35,24.29c-1.43,1.43-5.12-2.94-8.83-6.62-2.69-2.67-6-4.6-5.52-5.52,1.1-2.21,5.52,44.16,3.31,47.48,0,0-1.1,2.21-3.31,0-1.85-1.86-2.15-19.28-2.2-24.82a2.66,2.66,0,0,0-2.16-2.64c-.63-.1-1.16.07-1.16,1,0,2.2,2.21,26.5,2.21,28.71A5.44,5.44,0,0,1,1526,618a2.42,2.42,0,0,1-3.31-1.11c-1.1-2.2-2.21-29.81-2.21-29.81s-1.1-2.21-2.21-1.1c-1.56,1.56,1.11,24.29,1.11,24.29s1.1,5.52-2.21,3.31c-3.79-2.52-4.42-24.29-4.42-24.29V586s-2.21-2.21-2.21,0,2.21,21,2.21,21-1.1,3.31-3.31,0c0,0-3.31-16.43-3.31-21V584.9s-3.32-16.56-2.21-19.87c0,0,0-11,3.31-13.26S1530.46,552.88,1530.46,552.88Z"/>
      <path class="cls-35" d="M1698.68,937.68l18.45,1.89,2.8,32.07s-28.52,60.37-34.11,56.59-19-17.92-15.66-34S1698.68,937.68,1698.68,937.68Z"/>
      <path class="cls-35" d="M1752.09,942.78l-18.46,1.88-2.79,32.08s28.51,60.36,34.11,56.59,19-17.92,15.65-34S1752.09,942.78,1752.09,942.78Z"/>
      <path class="cls-36" d="M1661.33,604.19,1762,599s72.15,70.32,1.26,357.55L1681,955S1585.37,577.26,1661.33,604.19Z"/>
      <path class="cls-34" d="M1767.59,671.88s-25.74,9.46-24.51,14c.53,1.95,5.91,0,11-1.37,3.66-1,7.47-1,7.53-2.06.14-2.47-26.7,35.62-26.43,39.59,0,0-.13,2.46,2.88,1.64,2.53-.69,11.43-15.67,14.22-20.46a2.67,2.67,0,0,1,3.18-1.22c.6.22,1,.64.54,1.41-1.1,1.91-15.06,21.91-16.16,23.83a5.48,5.48,0,0,0-.68,3.43,2.41,2.41,0,0,0,3.42.68c2.06-1.37,16.71-24.79,16.71-24.79s2-1.37,2.46.13c.58,2.13-13,20.55-13,20.55s-3.7,4.25.27,4c4.54-.31,15.88-18.9,15.88-18.9l1.65-2.88s3-.82,1.91,1.1-12.32,17.12-12.32,17.12-.68,3.42,2.88,1.64c0,0,11-12.62,13.28-16.57l.55-1s11.09-12.74,11.77-16.17c0,0,5.48-9.58,3.7-13.15S1767.59,671.88,1767.59,671.88Z"/>
      <path class="cls-37" d="M1668.57,442.28s19.81,17.62,60.9,4.41c0,0,61.64-.74,72.65,20.54s54.3,58.71,47.7,95.4-57.91,126-57.91,126l-28.61-18.34s53.5-80.54,42.49-109.89l-11-29.35s-30.08-42.57-36.69-38.16,23.48,119.61,23.48,119.61-116.67,41.09-154.1,11c0,0,27.15-137.23,17.61-132.82,0,0-20.9-25.62-45.49-32.29-20.53-5.57-44.16-8.75-49.17-.74-11,17.62-20.54,89.53-18.34,93.93s-28.62,0-28.62,0l6.6-77.05s0-30.08,17.61-42.56c13.89-9.83,33.69-14.65,41.46-16.25a21.48,21.48,0,0,1,6.88-.29C1585.92,416.61,1616.52,421.58,1668.57,442.28Z"/>
      <path class="cls-38" d="M1690.58,660.17l19.81,10.36s25.19,178,15.9,285"/>
      <line class="cls-38" x1="1725.07" y1="656.56" x2="1710.39" y2="670.3"/>
    </g>
  </g>
</svg>
