<svg xmlns="http://www.w3.org/2000/svg" width="380" height="380" viewBox="0 0 380 380">
  <defs>
    <style>
      .cls-1 {
        fill: #f2f2e4;
      }
    </style>
  </defs>
  <g id="artboard_2" data-name="artboard 2">
    <path class="cls-1" d="M335,188a43.3,43.3,0,0,0-31.85-41.75A43.29,43.29,0,0,0,236,99.9a43.3,43.3,0,0,0-71.95-17.38,43.29,43.29,0,0,0-74,30.53A43.29,43.29,0,0,0,47.6,164.78a43.29,43.29,0,0,0,14.07,76.58c0,.52,0,1,0,1.58a43.3,43.3,0,0,0,55.66,41.49,43.29,43.29,0,0,0,83.59,5.93,43.3,43.3,0,0,0,79.64-13.84l.82,0a43.3,43.3,0,0,0,40.8-57.77A43.17,43.17,0,0,0,335,188Z"/>
  </g>
</svg>
