<?xml version="1.0" encoding="utf-8"?>
<!-- Generator: Adobe Illustrator 25.0.1, SVG Export Plug-In . SVG Version: 6.00 Build 0)  -->
<svg version="1.1" xmlns="http://www.w3.org/2000/svg" xmlns:xlink="http://www.w3.org/1999/xlink" x="0px" y="0px"
	 viewBox="0 0 2000 1400" style="enable-background:new 0 0 2000 1400;" xml:space="preserve">
<style type="text/css">
	.st0{fill:url(#Body_-_Frame_3_);stroke:#FFFFFF;stroke-miterlimit:10;}
	.st1{fill:#202126;stroke:#FFFFFF;stroke-miterlimit:10;}
	.st2{stroke:#FFFFFF;stroke-miterlimit:10;}
	.st3{fill:#333333;stroke:#FFFFFF;stroke-miterlimit:10;}
	.st4{fill:url(#SVGID_1_);stroke:#FFFFFF;stroke-miterlimit:10;}
	.st5{fill:url(#SVGID_2_);stroke:#FFFFFF;stroke-miterlimit:10;}
	.st6{fill:url(#SVGID_3_);stroke:#FFFFFF;stroke-miterlimit:10;}
	.st7{fill:url(#SVGID_4_);stroke:#FFFFFF;stroke-miterlimit:10;}
	.st8{fill:url(#Body_-_Frame_4_);stroke:#FFFFFF;stroke-miterlimit:10;}
	.st9{fill:url(#SVGID_5_);stroke:#FFFFFF;stroke-miterlimit:10;}
	.st10{fill:url(#SVGID_6_);stroke:#FFFFFF;stroke-miterlimit:10;}
	.st11{fill:url(#SVGID_7_);stroke:#FFFFFF;stroke-miterlimit:10;}
	.st12{fill:url(#SVGID_8_);stroke:#FFFFFF;stroke-miterlimit:10;}
</style>
<g id="Background">
</g>
<g id="Gold_Laptop">
	<g id="_x5B_YOUR_SCREEN_HERE_x5D__7_">
	</g>
</g>
<g id="Rose_Gold_Laptop">
	<g id="_x5B_YOUR_SCREEN_HERE_x5D__6_">
	</g>
</g>
<g id="Space_Gray_Laptop">
	<g id="Shadow_1_">

			<image style="overflow:visible;" width="988" height="85" xlink:href="EB1F667D24B6438.png"  transform="matrix(1 0 0 1 1002 915)">
		</image>
	</g>
	<linearGradient id="Body_-_Frame_3_" gradientUnits="userSpaceOnUse" x1="1114.9745" y1="684.0165" x2="1876.9901" y2="684.0165">
		<stop  offset="0" style="stop-color:#4C4D4F"/>
		<stop  offset="1" style="stop-color:#86888C"/>
	</linearGradient>
	<path id="Body_-_Frame_2_" class="st0" d="M1877,923c0,15.5-12.7,28.2-28.2,28.2h-705.6c-15.5,0-28.2-12.7-28.2-28.2V445
		c0-15.5,12.7-28.2,28.2-28.2h705.6c15.5,0,28.2,12.7,28.2,28.2V923z"/>
	<path id="Bottom_2_" class="st1" d="M1118,923c0,13.9,11.3,25.2,25.2,25.2h705.6c13.9,0,25.2-11.3,25.2-25.2v-9.3h-756V923z"/>
	<path id="Border_2_" class="st2" d="M1848.8,419.9h-705.6c-13.9,0-25.2,11.3-25.2,25.2v468.6h756V445
		C1874,431.2,1862.7,419.9,1848.8,419.9z"/>
	<g id="_x5B_YOUR_SCREEN_HERE_x5D__5_">
		<rect id="_x5B_YOUR_SCREEN_HERE_x5D__1_" x="1144.7" y="456" class="st3" width="702.6" height="438.8"/>
	</g>
	<g id="Body_2_">
		<linearGradient id="SVGID_1_" gradientUnits="userSpaceOnUse" x1="1029.9646" y1="937.3586" x2="1962" y2="937.3586">
			<stop  offset="0" style="stop-color:#000000"/>
			<stop  offset="2.315561e-02" style="stop-color:#ADADAD"/>
			<stop  offset="3.865980e-02" style="stop-color:#BFBFBF"/>
			<stop  offset="7.818541e-02" style="stop-color:#878787"/>
			<stop  offset="0.5049" style="stop-color:#5E5E5E"/>
			<stop  offset="0.913" style="stop-color:#A7A7AB"/>
			<stop  offset="0.9721" style="stop-color:#C0C0C4"/>
			<stop  offset="0.9759" style="stop-color:#BCBCBF"/>
			<stop  offset="0.9802" style="stop-color:#AEAEB2"/>
			<stop  offset="0.9847" style="stop-color:#98989C"/>
			<stop  offset="0.9893" style="stop-color:#7A7A7C"/>
			<stop  offset="0.9941" style="stop-color:#525254"/>
			<stop  offset="0.9989" style="stop-color:#232324"/>
			<stop  offset="1" style="stop-color:#161617"/>
		</linearGradient>
		<polygon class="st4" points="1962,935 1496,935 1030,935 1030,939.7 1962,939.7 		"/>
		<linearGradient id="SVGID_2_" gradientUnits="userSpaceOnUse" x1="1495.9823" y1="939.6436" x2="1495.9823" y2="954.506">
			<stop  offset="0" style="stop-color:#6E6F73"/>
			<stop  offset="1" style="stop-color:#0D0D0D"/>
		</linearGradient>
		<path class="st5" d="M1496,953.8c0,0,241.2,0,339.2,0c97.9,0,126.9-14.1,126.9-14.1h-932c0,0,28.9,14.1,126.9,14.1
			C1254.7,953.8,1496,953.8,1496,953.8z"/>
		<linearGradient id="SVGID_3_" gradientUnits="userSpaceOnUse" x1="1407.0356" y1="938.4913" x2="1584.9288" y2="938.4913">
			<stop  offset="0" style="stop-color:#323233"/>
			<stop  offset="1.334244e-02" style="stop-color:#3C3C3D"/>
			<stop  offset="7.910993e-02" style="stop-color:#6A6A6B"/>
			<stop  offset="0.1121" style="stop-color:#7C7C7D"/>
			<stop  offset="0.8906" style="stop-color:#7D7D7D"/>
			<stop  offset="0.9099" style="stop-color:#767676"/>
			<stop  offset="0.9385" style="stop-color:#626262"/>
			<stop  offset="0.9727" style="stop-color:#414242"/>
			<stop  offset="1" style="stop-color:#222324"/>
		</linearGradient>
		<path class="st6" d="M1496,935H1407v4.8c6.2,1.5,18.6,2.3,36,2.3c14.3,0,53,0,53,0s38.6,0,53,0c17.4,0,29.8-0.8,36-2.3V935H1496z"
			/>
		<linearGradient id="SVGID_4_" gradientUnits="userSpaceOnUse" x1="1025.4194" y1="946.7979" x2="1962.9634" y2="946.7979">
			<stop  offset="0" style="stop-color:#B5B5B5"/>
			<stop  offset="2.241702e-02" style="stop-color:#C3C3C3"/>
			<stop  offset="6.660090e-02" style="stop-color:#D9D9D9"/>
			<stop  offset="0.1186" style="stop-color:#EAEAEA"/>
			<stop  offset="0.1827" style="stop-color:#F6F6F6"/>
			<stop  offset="0.2718" style="stop-color:#FDFDFD"/>
			<stop  offset="0.5112" style="stop-color:#FFFFFF"/>
			<stop  offset="0.6895" style="stop-color:#FDFDFD"/>
			<stop  offset="0.7656" style="stop-color:#F6F6F6"/>
			<stop  offset="0.8223" style="stop-color:#E9E9E9"/>
			<stop  offset="0.8693" style="stop-color:#D8D8D8"/>
			<stop  offset="0.9103" style="stop-color:#C0C0C0"/>
			<stop  offset="0.9471" style="stop-color:#A4A4A4"/>
			<stop  offset="0.9801" style="stop-color:#838383"/>
			<stop  offset="1" style="stop-color:#6B6B6B"/>
		</linearGradient>
		<path class="st7" d="M1496,953.8c0,0,241.2,0,339.2,0c97.9,0,126.9-14.1,126.9-14.1h-932c0,0,28.9,14.1,126.9,14.1
			C1254.7,953.8,1496,953.8,1496,953.8z"/>
	</g>
</g>
<g id="Silver_Laptop">
	<g id="Shadow_3_">
		<image style="overflow:visible;" width="987" height="85" xlink:href="EB1F667D24B6439.png"  transform="matrix(1 0 0 1 24 917)">
		</image>
	</g>
	<linearGradient id="Body_-_Frame_4_" gradientUnits="userSpaceOnUse" x1="136.34" y1="685.8379" x2="898.3558" y2="685.8379">
		<stop  offset="0" style="stop-color:#797A7E"/>
		<stop  offset="1" style="stop-color:#ABADB3"/>
	</linearGradient>
	<path id="Body_-_Frame_1_" class="st8" d="M898.4,924.8c0,15.5-12.7,28.2-28.2,28.2H164.5c-15.5,0-28.2-12.7-28.2-28.2v-478
		c0-15.5,12.7-28.2,28.2-28.2h705.6c15.5,0,28.2,12.7,28.2,28.2V924.8z"/>
	<path id="Bottom_1_" class="st1" d="M139.4,924.8c0,13.9,11.3,25.2,25.2,25.2h705.6c13.9,0,25.2-11.3,25.2-25.2v-9.3h-756V924.8z"
		/>
	<path id="Border_1_" class="st2" d="M870.2,421.7H164.5c-13.9,0-25.2,11.3-25.2,25.2v468.6h756V446.9
		C895.3,433,884,421.7,870.2,421.7z"/>
	<g id="_x5B_YOUR_SCREEN_HERE_x5D__4_">
		<rect id="_x5B_YOUR_SCREEN_HERE_x5D_" x="166.1" y="457.8" class="st3" width="702.6" height="438.8"/>
	</g>
	<g id="Body_1_">
		<linearGradient id="SVGID_5_" gradientUnits="userSpaceOnUse" x1="51.3302" y1="939.18" x2="983.3656" y2="939.18">
			<stop  offset="0" style="stop-color:#282829"/>
			<stop  offset="2.315561e-02" style="stop-color:#E6E6E6"/>
			<stop  offset="3.865980e-02" style="stop-color:#F7F7F7"/>
			<stop  offset="7.818541e-02" style="stop-color:#E6E6E6"/>
			<stop  offset="0.5049" style="stop-color:#E3E3E3"/>
			<stop  offset="0.913" style="stop-color:#C3C3C7"/>
			<stop  offset="0.9721" style="stop-color:#F3F3FA"/>
			<stop  offset="0.9755" style="stop-color:#EFEFF5"/>
			<stop  offset="0.9793" style="stop-color:#E1E1E8"/>
			<stop  offset="0.9833" style="stop-color:#CCCCD2"/>
			<stop  offset="0.9874" style="stop-color:#ADADB2"/>
			<stop  offset="0.9917" style="stop-color:#86868A"/>
			<stop  offset="0.9959" style="stop-color:#56565A"/>
			<stop  offset="1" style="stop-color:#222224"/>
		</linearGradient>
		<polygon class="st9" points="983.4,936.8 517.3,936.8 51.3,936.8 51.3,941.6 983.4,941.6 		"/>
		<linearGradient id="SVGID_6_" gradientUnits="userSpaceOnUse" x1="517.3479" y1="941.465" x2="517.3479" y2="956.3274">
			<stop  offset="0" style="stop-color:#898A8F"/>
			<stop  offset="1" style="stop-color:#141414"/>
		</linearGradient>
		<path class="st10" d="M517.3,955.7c0,0,241.2,0,339.2,0s126.9-14.1,126.9-14.1h-932c0,0,28.9,14.1,126.9,14.1
			S517.3,955.7,517.3,955.7z"/>
		<linearGradient id="SVGID_7_" gradientUnits="userSpaceOnUse" x1="428.4013" y1="940.3127" x2="606.2945" y2="940.3127">
			<stop  offset="0" style="stop-color:#4B4B4D"/>
			<stop  offset="2.550150e-02" style="stop-color:#8B8B8C"/>
			<stop  offset="4.653653e-02" style="stop-color:#B9B9BA"/>
			<stop  offset="5.704333e-02" style="stop-color:#CBCBCC"/>
			<stop  offset="0.9323" style="stop-color:#BFBFBF"/>
			<stop  offset="0.9422" style="stop-color:#B8B8B8"/>
			<stop  offset="0.9568" style="stop-color:#A4A4A4"/>
			<stop  offset="0.9745" style="stop-color:#838384"/>
			<stop  offset="0.9942" style="stop-color:#565658"/>
			<stop  offset="1" style="stop-color:#47484A"/>
		</linearGradient>
		<path class="st11" d="M517.3,936.8h-88.9v4.8c6.2,1.5,18.6,2.3,36,2.3c14.3,0,53,0,53,0s38.6,0,53,0c17.4,0,29.8-0.8,36-2.3v-4.8
			H517.3z"/>
		<linearGradient id="SVGID_8_" gradientUnits="userSpaceOnUse" x1="46.785" y1="948.6193" x2="984.3289" y2="948.6193">
			<stop  offset="0" style="stop-color:#B5B5B5"/>
			<stop  offset="2.241702e-02" style="stop-color:#C3C3C3"/>
			<stop  offset="6.660090e-02" style="stop-color:#D9D9D9"/>
			<stop  offset="0.1186" style="stop-color:#EAEAEA"/>
			<stop  offset="0.1827" style="stop-color:#F6F6F6"/>
			<stop  offset="0.2718" style="stop-color:#FDFDFD"/>
			<stop  offset="0.5112" style="stop-color:#FFFFFF"/>
			<stop  offset="0.7072" style="stop-color:#FDFDFD"/>
			<stop  offset="0.7909" style="stop-color:#F6F6F6"/>
			<stop  offset="0.8531" style="stop-color:#E9E9E9"/>
			<stop  offset="0.9048" style="stop-color:#D8D8D8"/>
			<stop  offset="0.9499" style="stop-color:#C0C0C0"/>
			<stop  offset="0.9897" style="stop-color:#A5A5A5"/>
			<stop  offset="1" style="stop-color:#9C9C9C"/>
		</linearGradient>
		<path class="st12" d="M517.3,955.7c0,0,241.2,0,339.2,0s126.9-14.1,126.9-14.1h-932c0,0,28.9,14.1,126.9,14.1
			S517.3,955.7,517.3,955.7z"/>
	</g>

		<image style="overflow:visible;" width="2880" height="1800" xlink:href="../../../../../Dropbox/Skærmbilleder/Skærmbillede 2021-01-06 kl. 10.58.22.png"  transform="matrix(0.2435 0 0 0.2435 166.1127 457.9794)">
	</image>

		<image style="overflow:visible;" width="2880" height="1800" xlink:href="../../../../../Dropbox/Skærmbilleder/Skærmbillede 2021-01-06 kl. 11.00.14.png"  transform="matrix(0.244 0 0 0.244 1144.4424 456.158)">
	</image>
</g>
</svg>
